<svg version="1.1" xmlns="http://www.w3.org/2000/svg" style="display: block;" viewBox="0 0 2048 1592" width="1955" height="1520" preserveAspectRatio="none">
<path transform="translate(0,0)" fill="rgb(0,0,0)" d="M 1401.62 226.449 C 1402.61 213.538 1402.1 193.591 1399.67 181.186 C 1398.11 173.258 1379.43 161.833 1372.95 157.386 C 1349.61 141.373 1354.84 119.59 1362.77 96.2551 C 1368.57 79.1878 1386.15 72.6387 1401.82 65.8926 C 1418.29 68.9357 1433 70.85 1448.57 77.985 C 1460.5 83.4486 1472.17 93.1098 1483.91 98.0587 C 1487.66 99.6394 1491.26 83.0534 1493.67 79.908 C 1496.15 76.6701 1496.42 76.4504 1500.11 73.9401 L 1501.12 73.2605 C 1511.76 71.9453 1532.72 72.5266 1544.9 72.097 C 1558.74 81.8852 1556.68 88.3587 1564.07 95.42 C 1577.64 108.4 1608.02 67.6432 1627.41 69.2539 C 1631.44 69.5884 1635.6 68.2401 1639.88 71.8909 L 1639.68 73.9629 C 1635.77 78.086 1631.25 78.2692 1626.65 81.6439 C 1622.01 85.0472 1622.46 87.6593 1617.02 90.242 L 1617.31 91.2203 C 1622.36 90.3636 1648.07 84.0754 1651.02 85.3683 L 1651.42 88.0954 C 1648.71 90.3955 1649.34 89.0179 1648.94 92.0897 C 1650.6 92.6749 1650.64 92.6204 1652.41 92.717 L 1652.02 93.7512 L 1650.84 94.065 C 1647.66 94.9238 1641.91 96.5807 1640.42 99.6382 C 1650.86 102.295 1702.43 96.6527 1711.34 108.672 L 1711.21 110.48 C 1704.41 110.949 1697.03 108.268 1689.8 108.055 C 1673.09 107.562 1658.05 112.914 1642.26 115.044 C 1648.59 117.569 1651.26 121.373 1654.22 127.466 C 1678.75 137.235 1686.93 152.647 1697.07 175.687 C 1705.07 193.856 1719.41 231.989 1711.44 251.339 C 1709.31 256.269 1709.08 270.654 1711.74 274.812 C 1744.92 266.089 1765.24 266.53 1795.47 283.831 C 1817.48 296.425 1807.58 312.588 1798.21 329.751 C 1792.09 340.964 1768.87 344.529 1758.88 350.852 C 1743.02 361.656 1726.13 377.553 1707.77 384.729 C 1705.85 385.481 1688.55 383.745 1685.43 383.26 C 1683.53 381.026 1684.1 382.283 1683.73 379.332 C 1680.91 377.028 1679.55 376.838 1676.01 375.638 C 1668.55 377.734 1662.98 372.721 1661.24 365.77 L 1659.97 364.482 C 1655.25 363.935 1653.39 364.72 1649.7 361.474 C 1647.27 359.215 1641.78 358.687 1638.16 357.988 C 1619.96 356.25 1614.49 349.987 1598.77 342.708 C 1597.04 341.906 1591.55 351.674 1591.28 353.602 C 1586.68 369.285 1582.37 385.208 1578.02 400.936 C 1577.81 401.722 1579.11 412.488 1579.26 413.713 C 1583.29 418.863 1587.66 424.338 1591.4 429.68 C 1595.26 433.54 1599.6 436.229 1597.18 441.911 C 1599.99 445.513 1602.33 448.191 1604.18 452.427 C 1622.79 462.949 1625.64 461.198 1646.16 466.718 C 1653.35 468.653 1665.82 478.155 1678.39 477.029 L 1679.68 475.828 C 1678.31 471.458 1676.44 466.884 1676.61 462.426 L 1677.6 461.375 C 1686.62 462.723 1693.93 479.379 1702.79 473.607 C 1707.34 455.134 1694.43 435.027 1716.39 422.806 C 1734.71 412.612 1743.55 418.566 1761.67 413.737 C 1766.9 411.609 1770.64 406.74 1775.31 403.527 C 1796.81 388.709 1816.82 378.404 1843.43 383.829 C 1869.57 389.161 1857.98 419.74 1865.44 428.269 C 1872.76 436.634 1903.29 447.902 1908.87 461.867 C 1913.72 479.986 1892.41 495.026 1885.31 507.762 C 1894.32 523.358 1895.72 532.977 1878.79 542.574 C 1870.75 547.136 1861.36 549.09 1853.14 553.249 C 1835.71 566.465 1837.96 574.228 1811.61 570.277 C 1799.46 568.454 1789.67 564.748 1776.55 564.804 C 1766.11 571.165 1747.53 583.22 1737.21 588.322 C 1728.37 586.965 1708.25 582.694 1706.47 596.437 L 1708.99 598.122 L 1708.36 599.075 C 1697.61 600.689 1681.81 592.365 1670.87 588.021 L 1670.23 586.006 C 1666.13 580.229 1664.99 579.001 1659.73 574.233 L 1654.32 585.144 C 1659.02 586.958 1672.89 591.814 1675.88 594.269 C 1675.6 595.407 1675.73 596.316 1674.55 596.658 C 1665.71 599.226 1648.5 594.344 1640.33 591.476 C 1618.31 583.755 1597.62 574.081 1575.6 566.631 C 1570.55 564.924 1561.38 569.855 1556.03 567.932 C 1551.83 566.718 1545.32 560.234 1543.25 559.758 C 1527.31 556.099 1487.6 543.063 1473.64 542.51 C 1466 542.208 1458.4 543.754 1451.49 547.017 C 1442.58 551.314 1435.32 558.678 1428.89 566.056 C 1429.28 570.907 1430.22 575.129 1428.16 579.33 C 1426.09 581.014 1426.17 580.979 1423.7 581.98 C 1419.48 590.391 1425.94 604.457 1419.14 608.202 C 1406.73 607.723 1393.87 591.838 1383.33 595.485 C 1376.54 602.826 1386.27 636.087 1381.9 648.15 L 1380.16 649.998 C 1370.96 649.773 1365.59 631.957 1355.25 631.45 C 1349.97 631.192 1342.89 642.192 1341.61 646.175 L 1338.99 645.063 C 1338.59 641.98 1338.68 641.396 1338.99 638.265 L 1337.69 638.362 C 1335.38 641.967 1334.71 642.946 1333.32 646.961 C 1335.13 648.454 1336.6 648.143 1339 648.159 L 1339.78 649.817 C 1336.73 649.905 1333.27 649.401 1331.28 650.935 C 1331.11 654.285 1330.86 654.835 1332.26 657.729 L 1335.52 653.832 C 1338.36 653.648 1339.91 654.212 1341.72 656.619 C 1341.63 664.79 1341.62 686.287 1337.36 692.463 C 1334.52 693.224 1330.98 691.563 1329.66 689.034 C 1329.05 680.774 1330.15 669.091 1327.53 662.259 L 1320.65 660.61 C 1313.78 673.597 1305.91 689.26 1306.64 703.896 C 1297.57 715.282 1294.76 725.397 1287.5 736.39 C 1248.43 795.53 1227.87 863.259 1212.08 931.697 C 1210.39 939.015 1214.24 938.943 1214.88 945.355 C 1214.83 949.466 1209.11 956.274 1210.96 961.659 C 1220.59 967.167 1239.21 970.217 1249.88 976.186 C 1254.48 978.766 1270.09 975.722 1277.02 977.869 L 1277.82 979.563 L 1275.83 983.506 C 1277.06 986.365 1285.83 989.367 1289.17 992.824 C 1294.43 998.26 1298.12 1005.06 1301.99 1011.47 C 1307.9 1003.85 1308.39 1001.73 1317.5 999.675 C 1335.27 949.681 1385.8 931.813 1428.82 967.802 C 1439.99 977.145 1445.18 1014.22 1444.31 1028.31 C 1440.47 1090.71 1407.3 1158.12 1366.65 1204.81 C 1360.73 1211.59 1347.97 1213.29 1340.36 1217.47 C 1303.26 1247.3 1271.8 1247.3 1237.99 1211.11 C 1218.34 1190.07 1222.35 1162.92 1228.41 1136.4 C 1230.31 1128.09 1235.84 1112.02 1229.06 1105.09 C 1222.63 1098.43 1216.59 1110.38 1211.31 1110.45 C 1200.56 1106.01 1189.3 1092.79 1180.54 1084.16 C 1171.34 1083.15 1138.2 1081.93 1129.86 1085.25 C 1120.5 1089.15 1109.06 1087.52 1098.43 1089.1 C 1060.14 1094.78 1035.18 1100.02 1000.97 1118.09 C 974.567 1132.04 926.485 1148.82 897.182 1149.65 C 868.436 1150.47 847.821 1140.75 829.493 1118.93 C 813.056 1103.41 811.067 1080.14 806.041 1074.94 C 799.538 1075.19 788.313 1082.29 782.734 1081.84 C 760.25 1080 728.801 1079.37 710.149 1065.99 C 702.562 1060.54 697.236 1052.74 690.71 1046.36 C 679.807 1045.49 668.329 1046.35 656.924 1045.06 C 629.14 1041.92 601.787 1031.39 578.169 1016.54 C 565.575 1008.62 552.747 997.324 539.398 989.604 C 535.679 987.453 527.74 982.162 523.618 980.652 C 521.687 981.136 516.614 984.511 514.752 981.608 C 503.855 964.787 490.976 958.471 474.68 947.768 C 462.335 939.66 452.59 929.672 438.24 924.686 C 422.737 919.299 411.451 906.552 394.334 901.564 C 378.927 897.074 369.41 900.359 354.002 899.458 C 349.031 899.05 346.963 895.215 344.356 891.329 C 322.793 895.233 303.816 901.455 281.846 904.808 C 268.765 906.805 248.602 923.361 238.433 931.685 C 237.853 932.159 237.534 937.248 235.868 937.557 C 211.108 942.14 190.617 958.768 171.186 973.868 C 149.674 991.446 143.476 1018.9 109.555 1009.44 C 93.7441 1005.04 80.7855 997.133 72.1856 983.02 C 71.0691 966.518 72.9443 962.249 76.666 946.164 C 78.5059 945.492 85.3963 942.991 86.4753 942.033 C 95.0765 934.401 113 915.92 118.558 906.8 C 134.715 902.025 154.227 885.867 168.869 876.995 C 173.798 875.916 173.177 866.135 176.238 866.174 C 190.371 865.663 198.622 858.367 211.284 851.78 C 224.547 844.881 243.625 840.551 255.206 831.534 C 259.655 828.07 262.036 832.787 266.927 831.59 C 298.711 823.812 332.023 821.914 364.494 825.675 C 396.41 830.77 429.284 843.039 458.217 856.943 C 458.368 857.015 465.218 856.164 466.008 856.061 C 473.459 858.702 474.594 866.084 479.215 871.723 C 481.858 874.624 485.985 876.934 488.994 879.366 C 503.774 891.313 519.049 899.286 535.61 908.185 C 545.929 913.729 556.618 923.072 567.154 929.099 C 582.294 937.759 597.757 945.535 613.362 953.346 C 629.561 962.144 646.491 965.265 663.655 971.147 C 673.478 974.513 677.418 984.699 689.417 975.05 C 691.193 971.351 690.982 973.227 690.076 969.227 C 687.63 966.225 685.11 966.009 681.288 964.917 C 678.024 961.085 674.657 956.067 671.699 951.89 C 681.119 951.584 688.49 952.273 697.746 953.699 C 708.895 934.992 715.661 917.208 732.132 904.032 C 745.808 903.01 743.099 895.535 754.022 892.957 C 775.435 887.901 795.67 880.662 816.544 874.092 C 829.862 869.899 838.877 868.317 852.178 863.003 C 867.044 866.182 883.186 869.242 896.722 875.165 C 909.089 869.85 913.332 866.012 918.776 854.016 C 916.625 845.806 909.198 835.374 907.982 826.291 C 907.458 822.376 907.706 823.155 910.13 819.965 C 908.665 818.071 908.199 817.761 907.528 815.442 C 910.036 812.672 933.609 809.338 939.927 807.698 C 945.262 793.143 952.224 778.871 957.795 765.296 C 962.12 754.758 963.428 754.935 957.191 750.761 C 956.084 750.019 954.255 734.54 953.603 731.059 C 966.064 723.898 968.136 723.674 982.004 720.685 C 985.707 715.874 996.072 702.556 997.93 697.911 C 1005.95 677.853 1001.87 679.518 1016 662.998 L 1016.3 647.732 L 1025.89 645.386 C 1035.35 636.795 1049.09 617.684 1058.16 607.112 C 1069.66 593.71 1087.99 575.661 1095.28 560.264 C 1100.36 557.537 1123.17 542.301 1119.95 535.832 C 1116.88 535.517 1116.68 535.552 1113.82 534.543 C 1108.83 528.616 1112.38 516.69 1111.95 508.81 C 1111.69 504.114 1111.36 500.61 1110.79 495.896 C 1105.86 489.565 1099.42 480.876 1100.48 472.135 C 1100.61 471.04 1104.26 469.282 1105.38 468.612 C 1108.96 463.801 1109.24 435.693 1110.16 427.527 C 1111.23 417.875 1115.23 419.674 1115.79 415.863 C 1119.32 392.237 1135.46 382.043 1120.17 361.301 C 1119.81 355.512 1120.08 348.927 1120.18 343.058 C 1126.1 345.723 1132.06 348.321 1138.04 350.852 C 1140.66 347.869 1141.47 347.005 1144.62 344.617 L 1146.46 341.313 C 1143.48 337.772 1141.41 334.404 1138.9 330.545 C 1143.25 329.106 1152.86 326.216 1157.03 325.963 C 1160.52 323.28 1161.57 320.905 1163.84 317.146 C 1167.49 310.374 1178.27 308.903 1184.18 304.023 C 1185.91 302.6 1196.08 309.623 1199.86 309.277 C 1227.84 306.714 1252.52 320.03 1279.09 326.46 C 1282.57 327.303 1289.51 330.234 1292.6 330.4 L 1294.48 328.42 C 1293.57 325.643 1286.41 319.177 1283.87 316.655 C 1284.84 316.396 1285.8 316.129 1286.76 315.853 C 1291.4 314.513 1332.43 296.141 1333.44 294.306 L 1332.17 292.716 C 1329.8 292.495 1329.51 292.725 1327.62 291.41 C 1330 289.567 1343.72 286.174 1347.59 285.137 C 1340.04 282.827 1334.48 280.837 1327.14 277.907 C 1336.68 278.234 1343.6 278.167 1353.13 277.699 C 1354.07 275.629 1354.02 272.832 1354.17 270.482 C 1349.58 272.063 1290.24 269.934 1282.36 268.671 C 1290.95 266.898 1304.86 267.142 1314.1 266.012 C 1325.55 264.614 1336.57 262.748 1347.94 260.87 C 1349.32 263.73 1349.53 262.997 1348.89 265.347 C 1355.59 267.697 1361.41 268.535 1368.54 267.071 C 1372.45 267.652 1371.09 268.03 1374 266.185 L 1373.96 265.113 C 1370.32 262.226 1367.23 262.739 1362.62 262.739 C 1366.21 262.408 1368.14 262.175 1371.65 261.38 C 1374.59 258.829 1373.86 260.353 1374.36 256.897 C 1370.89 248.913 1350.88 238.283 1342.06 229.687 L 1341.13 228.776 C 1359.08 226.493 1353.84 222.448 1368.85 233.417 C 1375.15 232.514 1376.01 233.395 1380.01 229.798 C 1374.08 225.574 1348.58 214.475 1347.87 209.657 C 1349.11 209.644 1351.66 209.554 1352.73 210.023 C 1357.83 212.243 1362.52 208.207 1367.04 209.866 C 1378.65 214.132 1388.66 221.254 1400.33 225.938 L 1401.62 226.449 z M 1049.24 664.872 C 1060.05 658.474 1065.9 643.21 1073.87 633.454 C 1083.99 621.065 1092.07 607.439 1104.34 597.06 C 1102.3 593.732 1101.9 592.451 1098.71 590.468 C 1095.12 592.359 1089.76 600.698 1086.09 604.261 C 1071.83 618.142 1058.5 632.16 1049.23 649.985 C 1048.16 652.051 1048.75 662.222 1049.24 664.872 z M 1299.89 329.035 C 1308.2 338.314 1311.95 339.841 1323.84 343.87 L 1325.04 340.436 C 1320.8 325.047 1341.91 333.59 1348.42 327.531 L 1346.25 326.466 C 1326.4 330.281 1318.71 328.123 1299.89 329.035 z M 1145.92 542.184 C 1138.32 549.32 1131.83 553.836 1128.34 563.558 C 1129.32 565.039 1128.71 564.659 1129.83 565.1 C 1134.28 562.311 1147.57 547.914 1145.92 542.184 z M 1380.01 229.798 C 1385.04 231.801 1389.65 234.588 1394.41 237.109 C 1398.66 239.361 1403.09 242.953 1407.49 244.677 C 1414.35 247.36 1421.57 249.54 1428.51 252.035 C 1428.45 252.012 1434.39 250.745 1434.48 250.778 C 1448.92 256.066 1466.46 265.213 1480.75 269.272 C 1475.73 262.086 1473.49 259.049 1470.09 251.102 C 1476.67 254.202 1489.18 258.029 1496.44 257.353 L 1497.44 256.277 C 1495.23 251.339 1489.57 247.898 1485.8 242.23 C 1497.65 248.259 1506.71 253.486 1519.01 258.973 C 1530.9 264.282 1532.84 272.511 1550.86 277.382 L 1551.57 276.845 C 1543.06 269.755 1538.51 270.052 1528.01 259.895 C 1536.14 259.432 1559.38 264.625 1562.9 262.418 C 1561.56 258.276 1556.47 255.028 1552.89 252.536 C 1555.69 250.915 1558.64 249.328 1561.48 247.75 C 1562.64 249.71 1562.76 250.023 1564.3 251.658 L 1565.97 250.96 L 1566.39 246.661 L 1564.64 244.601 C 1565.57 235.248 1571.13 201.428 1570.39 194.108 C 1570.36 190.556 1569.74 190.822 1571.5 188.905 L 1574.94 190.194 C 1576.11 187.676 1574.62 177.914 1574.69 174.397 C 1575.77 157.28 1577.34 147.741 1588.43 133.348 C 1598.39 120.412 1619.06 109.21 1636.46 113.686 C 1639.67 114.513 1638.11 114.968 1642.26 115.044 C 1658.05 112.914 1673.09 107.562 1689.8 108.055 C 1697.03 108.268 1704.41 110.949 1711.21 110.48 L 1711.34 108.672 C 1702.43 96.6527 1650.86 102.295 1640.42 99.6382 C 1641.91 96.5807 1647.66 94.9238 1650.84 94.065 L 1652.02 93.7512 L 1652.41 92.717 C 1650.64 92.6204 1650.6 92.6749 1648.94 92.0897 C 1649.34 89.0179 1648.71 90.3955 1651.42 88.0954 L 1651.02 85.3683 C 1648.07 84.0754 1622.36 90.3636 1617.31 91.2203 L 1617.02 90.242 C 1622.46 87.6593 1622.01 85.0472 1626.65 81.6439 C 1631.25 78.2692 1635.77 78.086 1639.68 73.9629 L 1639.88 71.8909 C 1635.6 68.2401 1631.44 69.5884 1627.41 69.2539 C 1608.02 67.6432 1577.64 108.4 1564.07 95.42 C 1556.68 88.3587 1558.74 81.8852 1544.9 72.097 C 1532.72 72.5266 1511.76 71.9453 1501.12 73.2605 L 1500.11 73.9401 C 1496.42 76.4504 1496.15 76.6701 1493.67 79.908 C 1491.26 83.0534 1487.66 99.6394 1483.91 98.0587 C 1472.17 93.1098 1460.5 83.4486 1448.57 77.985 C 1433 70.85 1418.29 68.9357 1401.82 65.8926 C 1386.15 72.6387 1368.57 79.1878 1362.77 96.2551 C 1354.84 119.59 1349.61 141.373 1372.95 157.386 C 1379.43 161.833 1398.11 173.258 1399.67 181.186 C 1402.1 193.591 1402.61 213.538 1401.62 226.449 L 1400.33 225.938 C 1388.66 221.254 1378.65 214.132 1367.04 209.866 C 1362.52 208.207 1357.83 212.243 1352.73 210.023 C 1351.66 209.554 1349.11 209.644 1347.87 209.657 C 1348.58 214.475 1374.08 225.574 1380.01 229.798 z M 1145.04 505.857 C 1140.29 504.088 1133.81 504.117 1128.6 503.85 C 1128.86 509.215 1128.21 527.204 1128.67 529.196 L 1130.25 529.728 C 1133.94 527.704 1143.93 517.426 1146.88 513.937 C 1145.21 510.385 1145.33 509.878 1145.04 505.857 z M 576.611 987.593 C 572.161 983.675 550.697 973.51 545.68 975.68 L 545.845 978.455 C 551.2 982.246 570.668 997.226 575.446 996.553 C 576.439 992.786 576.413 991.547 576.611 987.593 z M 1725.22 568.222 C 1723.15 571.626 1720.95 574.285 1720.94 578.116 C 1725 582.642 1737.54 574.597 1742.45 572.058 C 1732.42 569.895 1736.32 564.522 1725.22 568.222 z M 1031.77 688.656 C 1028.66 684.768 1026.98 681.423 1022.72 680.271 C 1019.52 681.853 1018.27 684.902 1016.33 688.1 C 1019.92 690.84 1026.45 689.2 1031.77 688.656 z M 200.154 930.184 C 192.553 930.789 183.927 936.085 177.95 940.619 L 181.533 941.85 C 188.867 941.124 194.536 935.046 200.154 930.184 z M 1117.98 1075.67 C 1115.29 1078.22 1112.98 1079.45 1112.41 1082.52 L 1115.16 1084.15 C 1117.16 1081.48 1119.2 1079.73 1119.46 1076.83 L 1117.98 1075.67 z M 683.148 998.147 C 682.594 996.589 682.051 995.535 681.347 994.055 C 677.783 991.996 679.182 992.168 675.455 992.343 C 671.712 994.725 672.965 993.389 671.008 998.045 C 674.595 998.124 679.692 998.393 683.148 998.147 z M 468.694 926.531 C 474.635 931.115 499.428 952.554 505.431 951.557 C 506.468 948.148 506.292 947.394 506.223 943.746 C 499.983 938.286 474.446 919.673 466.81 922.343 L 468.694 926.531 z M 149.527 914.702 C 154.13 914.401 158.43 914.397 161.739 910.893 C 160.216 909.272 160.598 909.951 159.731 907.954 C 170.622 900.506 178.8 899.397 192.361 888.899 C 189.593 887.147 188.631 885.777 185.027 886.941 C 176.373 889.736 148.44 903.714 143.872 910.56 C 145.006 912.766 147.215 913.488 149.527 914.702 z M 1124.5 453.11 C 1111.69 478.572 1111.09 478.385 1137.94 489.302 C 1134.31 483.695 1135.79 466.475 1136 459.238 C 1131.44 455.715 1129.81 455.234 1124.5 453.11 z"/>
<path transform="translate(0,0)" fill="rgb(254,254,254)" d="M 1401.62 226.449 C 1402.61 213.538 1402.1 193.591 1399.67 181.186 C 1398.11 173.258 1379.43 161.833 1372.95 157.386 C 1349.61 141.373 1354.84 119.59 1362.77 96.2551 C 1368.57 79.1878 1386.15 72.6387 1401.82 65.8926 C 1418.29 68.9357 1433 70.85 1448.57 77.985 C 1460.5 83.4486 1472.17 93.1098 1483.91 98.0587 C 1487.66 99.6394 1491.26 83.0534 1493.67 79.908 C 1496.15 76.6701 1496.42 76.4504 1500.11 73.9401 L 1501.12 73.2605 C 1511.76 71.9453 1532.72 72.5266 1544.9 72.097 C 1558.74 81.8852 1556.68 88.3587 1564.07 95.42 C 1577.64 108.4 1608.02 67.6432 1627.41 69.2539 C 1631.44 69.5884 1635.6 68.2401 1639.88 71.8909 L 1639.68 73.9629 C 1635.77 78.086 1631.25 78.2692 1626.65 81.6439 C 1622.01 85.0472 1622.46 87.6593 1617.02 90.242 L 1617.31 91.2203 C 1622.36 90.3636 1648.07 84.0754 1651.02 85.3683 L 1651.42 88.0954 C 1648.71 90.3955 1649.34 89.0179 1648.94 92.0897 C 1650.6 92.6749 1650.64 92.6204 1652.41 92.717 L 1652.02 93.7512 L 1650.84 94.065 C 1647.66 94.9238 1641.91 96.5807 1640.42 99.6382 C 1650.86 102.295 1702.43 96.6527 1711.34 108.672 L 1711.21 110.48 C 1704.41 110.949 1697.03 108.268 1689.8 108.055 C 1673.09 107.562 1658.05 112.914 1642.26 115.044 C 1648.59 117.569 1651.26 121.373 1654.22 127.466 C 1678.75 137.235 1686.93 152.647 1697.07 175.687 C 1705.07 193.856 1719.41 231.989 1711.44 251.339 C 1709.31 256.269 1709.08 270.654 1711.74 274.812 C 1744.92 266.089 1765.24 266.53 1795.47 283.831 C 1817.48 296.425 1807.58 312.588 1798.21 329.751 C 1792.09 340.964 1768.87 344.529 1758.88 350.852 C 1743.02 361.656 1726.13 377.553 1707.77 384.729 C 1705.85 385.481 1688.55 383.745 1685.43 383.26 C 1683.53 381.026 1684.1 382.283 1683.73 379.332 C 1680.91 377.028 1679.55 376.838 1676.01 375.638 C 1668.55 377.734 1662.98 372.721 1661.24 365.77 L 1659.97 364.482 C 1655.25 363.935 1653.39 364.72 1649.7 361.474 C 1647.27 359.215 1641.78 358.687 1638.16 357.988 C 1619.96 356.25 1614.49 349.987 1598.77 342.708 C 1597.04 341.906 1591.55 351.674 1591.28 353.602 C 1586.68 369.285 1582.37 385.208 1578.02 400.936 C 1577.81 401.722 1579.11 412.488 1579.26 413.713 C 1583.29 418.863 1587.66 424.338 1591.4 429.68 C 1595.26 433.54 1599.6 436.229 1597.18 441.911 L 1588.97 448.245 C 1574.67 444.423 1561.04 439.234 1547.06 434.145 C 1539.55 431.411 1529.47 428.738 1522.3 425.533 C 1515.85 422.222 1509.02 414.451 1502.14 412.412 C 1486.58 407.797 1469.97 406.238 1454.65 400.485 C 1454.41 400.393 1451.4 396.402 1451.01 395.879 C 1449.4 395.729 1447.84 395.764 1446.22 395.852 C 1448.13 393.049 1447.88 394.469 1447.72 391.648 C 1442.86 388.336 1431.83 386.547 1426.26 389.422 C 1423.94 377.139 1390.41 372.212 1378.82 365.7 C 1382.99 365.475 1387.92 365.838 1390.61 362.35 C 1386.02 356.924 1366.02 357.396 1357.3 353.755 L 1357.13 352.504 C 1369.19 347.574 1382.83 350.875 1394.98 352.232 C 1370.51 341.282 1364.82 344.405 1340.72 351.114 C 1334.67 348.781 1329.73 346.605 1323.84 343.87 L 1325.04 340.436 C 1320.8 325.047 1341.91 333.59 1348.42 327.531 L 1346.25 326.466 C 1353.81 323.5 1361.42 323.817 1370.43 319.333 L 1370.65 317.982 C 1364.11 315.052 1345.27 316.175 1337.11 316.105 C 1331.62 315.155 1329.5 316.875 1326.18 314.707 L 1326.75 309.287 C 1332.29 306.185 1355.7 292.703 1361.46 294.748 L 1359.4 298.264 C 1363.69 301.557 1373.37 300.645 1376.96 295.354 C 1377.64 289.236 1374.33 286.269 1370.52 281.317 C 1376.06 281.291 1378.12 281.383 1383.57 280.195 L 1383.71 279.344 C 1375.55 276.848 1361.83 277.434 1353.13 277.699 C 1354.07 275.629 1354.02 272.832 1354.17 270.482 C 1349.58 272.063 1290.24 269.934 1282.36 268.671 C 1290.95 266.898 1304.86 267.142 1314.1 266.012 C 1325.55 264.614 1336.57 262.748 1347.94 260.87 C 1349.32 263.73 1349.53 262.997 1348.89 265.347 C 1355.59 267.697 1361.41 268.535 1368.54 267.071 C 1372.45 267.652 1371.09 268.03 1374 266.185 L 1373.96 265.113 C 1370.32 262.226 1367.23 262.739 1362.62 262.739 C 1366.21 262.408 1368.14 262.175 1371.65 261.38 C 1374.59 258.829 1373.86 260.353 1374.36 256.897 C 1370.89 248.913 1350.88 238.283 1342.06 229.687 L 1341.13 228.776 C 1359.08 226.493 1353.84 222.448 1368.85 233.417 C 1375.15 232.514 1376.01 233.395 1380.01 229.798 C 1374.08 225.574 1348.58 214.475 1347.87 209.657 C 1349.11 209.644 1351.66 209.554 1352.73 210.023 C 1357.83 212.243 1362.52 208.207 1367.04 209.866 C 1378.65 214.132 1388.66 221.254 1400.33 225.938 L 1401.62 226.449 z M 1380.01 229.798 C 1385.04 231.801 1389.65 234.588 1394.41 237.109 C 1398.66 239.361 1403.09 242.953 1407.49 244.677 C 1414.35 247.36 1421.57 249.54 1428.51 252.035 C 1428.45 252.012 1434.39 250.745 1434.48 250.778 C 1448.92 256.066 1466.46 265.213 1480.75 269.272 C 1475.73 262.086 1473.49 259.049 1470.09 251.102 C 1476.67 254.202 1489.18 258.029 1496.44 257.353 L 1497.44 256.277 C 1495.23 251.339 1489.57 247.898 1485.8 242.23 C 1497.65 248.259 1506.71 253.486 1519.01 258.973 C 1530.9 264.282 1532.84 272.511 1550.86 277.382 L 1551.57 276.845 C 1543.06 269.755 1538.51 270.052 1528.01 259.895 C 1536.14 259.432 1559.38 264.625 1562.9 262.418 C 1561.56 258.276 1556.47 255.028 1552.89 252.536 C 1555.69 250.915 1558.64 249.328 1561.48 247.75 C 1562.64 249.71 1562.76 250.023 1564.3 251.658 L 1565.97 250.96 L 1566.39 246.661 L 1564.64 244.601 C 1565.57 235.248 1571.13 201.428 1570.39 194.108 C 1570.36 190.556 1569.74 190.822 1571.5 188.905 L 1574.94 190.194 C 1576.11 187.676 1574.62 177.914 1574.69 174.397 C 1575.77 157.28 1577.34 147.741 1588.43 133.348 C 1598.39 120.412 1619.06 109.21 1636.46 113.686 C 1639.67 114.513 1638.11 114.968 1642.26 115.044 C 1658.05 112.914 1673.09 107.562 1689.8 108.055 C 1697.03 108.268 1704.41 110.949 1711.21 110.48 L 1711.34 108.672 C 1702.43 96.6527 1650.86 102.295 1640.42 99.6382 C 1641.91 96.5807 1647.66 94.9238 1650.84 94.065 L 1652.02 93.7512 L 1652.41 92.717 C 1650.64 92.6204 1650.6 92.6749 1648.94 92.0897 C 1649.34 89.0179 1648.71 90.3955 1651.42 88.0954 L 1651.02 85.3683 C 1648.07 84.0754 1622.36 90.3636 1617.31 91.2203 L 1617.02 90.242 C 1622.46 87.6593 1622.01 85.0472 1626.65 81.6439 C 1631.25 78.2692 1635.77 78.086 1639.68 73.9629 L 1639.88 71.8909 C 1635.6 68.2401 1631.44 69.5884 1627.41 69.2539 C 1608.02 67.6432 1577.64 108.4 1564.07 95.42 C 1556.68 88.3587 1558.74 81.8852 1544.9 72.097 C 1532.72 72.5266 1511.76 71.9453 1501.12 73.2605 L 1500.11 73.9401 C 1496.42 76.4504 1496.15 76.6701 1493.67 79.908 C 1491.26 83.0534 1487.66 99.6394 1483.91 98.0587 C 1472.17 93.1098 1460.5 83.4486 1448.57 77.985 C 1433 70.85 1418.29 68.9357 1401.82 65.8926 C 1386.15 72.6387 1368.57 79.1878 1362.77 96.2551 C 1354.84 119.59 1349.61 141.373 1372.95 157.386 C 1379.43 161.833 1398.11 173.258 1399.67 181.186 C 1402.1 193.591 1402.61 213.538 1401.62 226.449 L 1400.33 225.938 C 1388.66 221.254 1378.65 214.132 1367.04 209.866 C 1362.52 208.207 1357.83 212.243 1352.73 210.023 C 1351.66 209.554 1349.11 209.644 1347.87 209.657 C 1348.58 214.475 1374.08 225.574 1380.01 229.798 z"/>
<path transform="translate(0,0)" fill="rgb(0,0,0)" d="M 1401.62 226.449 C 1402.61 213.538 1402.1 193.591 1399.67 181.186 C 1398.11 173.258 1379.43 161.833 1372.95 157.386 C 1349.61 141.373 1354.84 119.59 1362.77 96.2551 C 1368.57 79.1878 1386.15 72.6387 1401.82 65.8926 C 1418.29 68.9357 1433 70.85 1448.57 77.985 C 1460.5 83.4486 1472.17 93.1098 1483.91 98.0587 C 1487.66 99.6394 1491.26 83.0534 1493.67 79.908 C 1496.15 76.6701 1496.42 76.4504 1500.11 73.9401 L 1501.12 73.2605 C 1511.76 71.9453 1532.72 72.5266 1544.9 72.097 C 1558.74 81.8852 1556.68 88.3587 1564.07 95.42 C 1577.64 108.4 1608.02 67.6432 1627.41 69.2539 C 1631.44 69.5884 1635.6 68.2401 1639.88 71.8909 L 1639.68 73.9629 C 1635.77 78.086 1631.25 78.2692 1626.65 81.6439 C 1622.01 85.0472 1622.46 87.6593 1617.02 90.242 L 1617.31 91.2203 C 1622.36 90.3636 1648.07 84.0754 1651.02 85.3683 L 1651.42 88.0954 C 1648.71 90.3955 1649.34 89.0179 1648.94 92.0897 C 1650.6 92.6749 1650.64 92.6204 1652.41 92.717 L 1652.02 93.7512 L 1650.84 94.065 C 1647.66 94.9238 1641.91 96.5807 1640.42 99.6382 C 1650.86 102.295 1702.43 96.6527 1711.34 108.672 L 1711.21 110.48 C 1704.41 110.949 1697.03 108.268 1689.8 108.055 C 1673.09 107.562 1658.05 112.914 1642.26 115.044 C 1638.11 114.968 1639.67 114.513 1636.46 113.686 C 1619.06 109.21 1598.39 120.412 1588.43 133.348 C 1577.34 147.741 1575.77 157.28 1574.69 174.397 C 1574.62 177.914 1576.11 187.676 1574.94 190.194 L 1571.5 188.905 C 1569.74 190.822 1570.36 190.556 1570.39 194.108 C 1571.13 201.428 1565.57 235.248 1564.64 244.601 L 1566.39 246.661 L 1565.97 250.96 L 1564.3 251.658 C 1562.76 250.023 1562.64 249.71 1561.48 247.75 C 1558.64 249.328 1555.69 250.915 1552.89 252.536 C 1556.47 255.028 1561.56 258.276 1562.9 262.418 C 1559.38 264.625 1536.14 259.432 1528.01 259.895 C 1538.51 270.052 1543.06 269.755 1551.57 276.845 L 1550.86 277.382 C 1532.84 272.511 1530.9 264.282 1519.01 258.973 C 1506.71 253.486 1497.65 248.259 1485.8 242.23 C 1489.57 247.898 1495.23 251.339 1497.44 256.277 L 1496.44 257.353 C 1489.18 258.029 1476.67 254.202 1470.09 251.102 C 1473.49 259.049 1475.73 262.086 1480.75 269.272 C 1466.46 265.213 1448.92 256.066 1434.48 250.778 C 1434.39 250.745 1428.45 252.012 1428.51 252.035 C 1421.57 249.54 1414.35 247.36 1407.49 244.677 C 1403.09 242.953 1398.66 239.361 1394.41 237.109 C 1389.65 234.588 1385.04 231.801 1380.01 229.798 C 1374.08 225.574 1348.58 214.475 1347.87 209.657 C 1349.11 209.644 1351.66 209.554 1352.73 210.023 C 1357.83 212.243 1362.52 208.207 1367.04 209.866 C 1378.65 214.132 1388.66 221.254 1400.33 225.938 L 1401.62 226.449 z M 1439.81 138.315 C 1428.28 130.734 1424.27 128.986 1409.46 129.839 C 1407.39 129.958 1406.04 131.049 1404.71 132.54 C 1402.03 142.656 1428.51 164.214 1436.2 168.902 C 1454.3 155.33 1438.84 150.064 1439.81 138.315 z M 1466.82 107.022 L 1469.42 105.23 C 1466.91 98.9468 1445.8 87.8647 1438.92 86.6779 C 1436.4 89.5257 1434.94 90.5858 1434.42 94.2283 C 1435.9 96.1541 1463.83 106.531 1466.82 107.022 z"/>
<path transform="translate(0,0)" fill="rgb(254,254,254)" fill-opacity="0.980392" d="M 1436.2 168.902 C 1428.51 164.214 1402.03 142.656 1404.71 132.54 C 1406.04 131.049 1407.39 129.958 1409.46 129.839 C 1424.27 128.986 1428.28 130.734 1439.81 138.315 C 1438.84 150.064 1454.3 155.33 1436.2 168.902 z"/>
<path transform="translate(0,0)" fill="rgb(239,157,19)" d="M 1527.52 115.408 C 1536.2 113.434 1569.89 107.671 1577.33 109.59 L 1578.76 110.949 C 1578.47 120.522 1564.3 131.726 1561.05 140.838 C 1556.58 153.391 1554.23 178.854 1564.47 189.586 C 1566.21 191.405 1567.96 193.69 1570.39 194.108 C 1571.13 201.428 1565.57 235.248 1564.64 244.601 L 1566.39 246.661 L 1565.97 250.96 L 1564.3 251.658 C 1562.76 250.023 1562.64 249.71 1561.48 247.75 C 1558.64 249.328 1555.69 250.915 1552.89 252.536 C 1544.9 247.412 1531.56 228.377 1521.62 235.721 C 1510.31 232.467 1501.54 228.195 1490.17 225.061 C 1495.58 235.393 1497.51 238.418 1505.62 246.847 C 1496.72 243.291 1485.87 241.161 1478.35 235.912 C 1470.91 230.723 1467.92 229.065 1459.28 226.373 C 1461.89 230.272 1463.56 234.486 1465.49 238.78 C 1446.87 229.884 1443.33 217.191 1416.83 216.932 C 1416.67 211.494 1416.84 205.867 1416.93 200.41 C 1442.29 187.924 1447.28 193.566 1473.18 192.319 C 1500.88 190.985 1506.06 191.816 1532.56 200.386 L 1532.03 199.757 C 1513.12 177.694 1472.47 168.563 1444.16 170.135 C 1448.71 161.573 1452.16 155.526 1457.42 147.396 C 1461.34 149.051 1465.39 150.81 1469.55 149.906 C 1471.52 142.952 1457.93 141.621 1462.89 133.428 C 1462.17 129.934 1460.31 128.885 1457.6 125.93 C 1457.08 124.103 1456.57 122.273 1456.07 120.439 C 1458.34 119.98 1459.79 120.186 1462.07 120.316 L 1470.96 123.262 C 1473.85 121.284 1476.3 119.022 1479.62 118.902 C 1487.08 121.874 1483.81 123.868 1494.27 126.45 C 1490.22 132.756 1481.47 145.715 1483.08 153.276 C 1486.78 156.787 1513.14 159.745 1513.17 149.471 C 1510.85 145.902 1509.34 143.796 1510.62 139.498 C 1513.32 130.439 1520.78 121.724 1527.52 115.408 z"/>
<path transform="translate(0,0)" fill="rgb(0,0,0)" d="M 1561.48 247.75 C 1554.3 241.544 1547.24 235.312 1539.62 229.638 C 1534.25 225.644 1527.05 222.86 1522.4 218.56 L 1523.54 217.699 C 1527.46 218.131 1530.01 218.665 1533.82 219.487 C 1538.6 224.38 1557.83 238.819 1564.64 244.601 L 1566.39 246.661 L 1565.97 250.96 L 1564.3 251.658 C 1562.76 250.023 1562.64 249.71 1561.48 247.75 z"/>
<path transform="translate(0,0)" fill="rgb(249,209,184)" d="M 1439.81 138.315 C 1446.23 142.133 1450.61 144.282 1457.42 147.396 C 1452.16 155.526 1448.71 161.573 1444.16 170.135 C 1440.27 170.196 1439.98 170.051 1436.2 168.902 C 1454.3 155.33 1438.84 150.064 1439.81 138.315 z"/>
<path transform="translate(0,0)" fill="rgb(218,173,88)" d="M 1457.6 125.93 C 1442.23 111.632 1436.75 109.103 1418.5 101.622 L 1418.61 100.355 C 1426.59 100.18 1454.47 116.141 1462.07 120.316 C 1459.79 120.186 1458.34 119.98 1456.07 120.439 C 1456.57 122.273 1457.08 124.103 1457.6 125.93 z"/>
<path transform="translate(0,0)" fill="rgb(238,238,241)" d="M 1617.31 91.2203 C 1614.86 93.2927 1606.55 95.7448 1603.54 98.0235 C 1599.68 100.934 1603.71 99.7212 1603.31 103.474 C 1600.53 104.716 1599.11 105.748 1596.16 105.139 L 1595.75 103.971 C 1598.2 97.2948 1608.41 88.4676 1615.59 88.1961 L 1617.02 90.242 L 1617.31 91.2203 z"/>
<path transform="translate(0,0)" fill="rgb(188,187,182)" d="M 1390.44 155.771 C 1396.93 157.314 1401.28 159.644 1404.82 165.253 C 1400.74 164.431 1393.84 158.466 1390.44 155.771 z"/>
<path transform="translate(0,0)" fill="rgb(0,0,0)" d="M 1711.74 274.812 C 1744.92 266.089 1765.24 266.53 1795.47 283.831 C 1817.48 296.425 1807.58 312.588 1798.21 329.751 C 1792.09 340.964 1768.87 344.529 1758.88 350.852 C 1743.02 361.656 1726.13 377.553 1707.77 384.729 C 1705.85 385.481 1688.55 383.745 1685.43 383.26 C 1683.53 381.026 1684.1 382.283 1683.73 379.332 C 1698.31 366.489 1706.07 382.344 1718.37 368.053 C 1723.12 362.534 1727.16 356.54 1731.36 350.598 C 1723.3 343.967 1709.37 339.141 1707.14 332.9 C 1708.7 326.56 1714.8 320.364 1719.16 315.18 L 1718.99 313.066 C 1719.2 308.16 1715.84 290.028 1714.84 284.25 C 1710.47 281.566 1709.87 281.374 1704.78 280.658 L 1704.29 279.816 C 1705.51 277.286 1709.03 276.128 1711.74 274.812 z"/>
<path transform="translate(0,0)" fill="rgb(153,165,198)" d="M 1714.84 284.25 C 1733.91 280.338 1763.35 280.137 1780.72 290.263 C 1784.15 292.263 1786.31 295.448 1786.97 299.432 C 1788.56 309.035 1784.29 311.729 1777.33 317.118 C 1763.26 292.089 1744.6 299.522 1724.17 311.929 C 1722.47 312.966 1720.8 314.05 1719.16 315.18 L 1718.99 313.066 C 1719.2 308.16 1715.84 290.028 1714.84 284.25 z"/>
<path transform="translate(0,0)" fill="rgb(0,0,0)" d="M 1591.4 429.68 C 1576.63 423.064 1567.85 421.942 1568.13 402.356 C 1568.46 379.803 1577.08 358.958 1580.94 337.107 C 1578.96 334.996 1577.31 336.671 1575.2 336.19 C 1573.83 335.876 1569.76 332.344 1568.61 331.326 C 1570.13 322.954 1568.05 325.512 1566.85 321.022 C 1570.78 312.403 1597.56 310.642 1605.72 311.64 L 1605.06 311.704 L 1604.86 313.171 C 1599.55 315.744 1593.46 316.814 1587.67 318.097 C 1593.19 318.612 1599.71 318.67 1604.28 321.511 C 1604.22 324.381 1602.39 327.043 1602.89 328.374 C 1606.92 339.088 1630.55 351.412 1638.16 357.988 C 1619.96 356.25 1614.49 349.987 1598.77 342.708 C 1597.04 341.906 1591.55 351.674 1591.28 353.602 C 1586.68 369.285 1582.37 385.208 1578.02 400.936 C 1577.81 401.722 1579.11 412.488 1579.26 413.713 C 1583.29 418.863 1587.66 424.338 1591.4 429.68 z"/>
<path transform="translate(0,0)" fill="rgb(0,0,0)" d="M 1341.13 228.776 C 1359.08 226.493 1353.84 222.448 1368.85 233.417 L 1369.65 234.167 C 1383.07 246.595 1395.56 250.795 1403.29 267.741 C 1395.71 270.599 1392.12 272.318 1384.23 273.062 C 1374.25 274.004 1362.98 267.881 1354.17 270.482 C 1349.58 272.063 1290.24 269.934 1282.36 268.671 C 1290.95 266.898 1304.86 267.142 1314.1 266.012 C 1325.55 264.614 1336.57 262.748 1347.94 260.87 C 1349.32 263.73 1349.53 262.997 1348.89 265.347 C 1355.59 267.697 1361.41 268.535 1368.54 267.071 C 1372.45 267.652 1371.09 268.03 1374 266.185 L 1373.96 265.113 C 1370.32 262.226 1367.23 262.739 1362.62 262.739 C 1366.21 262.408 1368.14 262.175 1371.65 261.38 C 1374.59 258.829 1373.86 260.353 1374.36 256.897 C 1370.89 248.913 1350.88 238.283 1342.06 229.687 L 1341.13 228.776 z"/>
<path transform="translate(0,0)" fill="rgb(0,0,0)" d="M 1654.22 127.466 C 1678.75 137.235 1686.93 152.647 1697.07 175.687 C 1705.07 193.856 1719.41 231.989 1711.44 251.339 C 1704.71 222.124 1694.22 193.905 1680.23 167.39 C 1673.03 153.624 1667.17 152.409 1662.44 135.519 C 1659.5 132.88 1656.98 130.274 1654.22 127.466 z"/>
<path transform="translate(0,0)" fill="rgb(238,238,241)" d="M 1704.78 280.658 C 1709.87 281.374 1710.47 281.566 1714.84 284.25 C 1715.84 290.028 1719.2 308.16 1718.99 313.066 C 1717.64 310.966 1713.89 307.242 1712.04 304.465 C 1706.57 296.271 1707.36 290.08 1704.99 281.409 L 1704.78 280.658 z"/>
<path transform="translate(0,0)" fill="rgb(0,0,0)" d="M 1661.24 365.77 C 1666.67 364.32 1678.57 363.561 1683.2 367.315 C 1683.84 371.933 1679.65 373.358 1676.01 375.638 C 1668.55 377.734 1662.98 372.721 1661.24 365.77 z"/>
<path transform="translate(0,0)" fill="rgb(0,0,0)" d="M 1649.7 361.474 C 1657.66 358.614 1659.35 357.47 1667.85 358.316 L 1668.79 359.472 C 1667.06 362.337 1663.23 363.285 1659.97 364.482 C 1655.25 363.935 1653.39 364.72 1649.7 361.474 z"/>
<path transform="translate(0,0)" fill="rgb(0,0,0)" d="M 1674.72 230.714 C 1689.17 234.116 1684.26 253.204 1684.54 264.107 C 1684.68 269.707 1683.72 278.143 1681.09 283.004 C 1678.81 285.344 1675.82 285.471 1672.45 286.17 C 1657.34 269.049 1656.3 245.961 1674.72 230.714 z"/>
<path transform="translate(0,0)" fill="rgb(254,254,254)" d="M 1297.59 576.518 C 1307.8 578.944 1325.78 596.849 1331.16 579.064 C 1330.37 568.929 1317.37 566.081 1314.62 559.497 L 1315.5 558.22 L 1320.6 559.373 C 1320.22 557.341 1320.14 557.4 1319.07 555.595 C 1321.59 551.29 1330.68 550.321 1335.49 547.607 C 1343.34 543.174 1350.67 535.485 1358.82 531.979 C 1361.02 531.03 1370.12 533.183 1373 533.122 C 1376.79 532.994 1379.34 529.61 1383.03 528.684 C 1385.73 528.004 1388.75 531.301 1389.85 531.337 C 1406.54 531.879 1422.07 529.131 1438.03 535.455 C 1430.96 542.979 1420.9 552.978 1414.63 560.698 C 1412.54 560.422 1411.92 560.295 1409.89 559.71 C 1403.42 564.992 1413.67 589.236 1412.33 597.028 C 1406.48 598.502 1399.75 585.232 1395.1 583.319 C 1385.46 579.361 1384.86 585.784 1375.15 578.509 C 1363.18 578.62 1368.84 616.901 1369.8 624.835 C 1360.7 621.838 1353.83 617.393 1345.1 613.798 C 1344.24 614.174 1343.38 614.55 1342.52 614.926 C 1334.42 623.83 1329.8 649.82 1327.53 662.259 L 1320.65 660.61 C 1308.94 665.497 1306.78 684.869 1300.79 693.417 C 1260.97 750.249 1229.94 811.696 1212.3 879.018 C 1210.02 887.728 1205.26 896.94 1202.8 905.726 C 1197.46 923.78 1193.18 945.467 1191.36 964.144 C 1157.55 998.508 1134.1 1050.91 1081.37 1056.77 C 1065.68 1058.51 1064.05 1045.57 1052.7 1038.77 C 1049.62 1026.14 1049.99 1022.9 1048.08 1011.99 C 1048.28 1005.92 1048.51 999.84 1048.79 993.766 C 1049.17 987.705 1049.04 985.877 1047.74 980.155 L 1047.54 979.232 C 1048.86 976.834 1052.47 961.67 1053.75 957.452 C 1051.57 953.124 1049.66 952.182 1048.9 946.895 C 1051.46 942.595 1057.69 925.448 1060.01 923.044 L 1063.9 923.086 C 1066.99 917.39 1066.67 904.909 1072.9 899.557 C 1077.22 895.85 1086.57 894.022 1086.31 887.471 C 1084.64 886.673 1082.96 885.896 1081.27 885.141 C 1078.59 876.002 1125.39 797.609 1127.86 781.196 C 1128.26 778.488 1128.44 777.69 1129.44 775.108 L 1129.8 774.2 C 1130.99 773.262 1136.57 764.293 1137.8 762.381 L 1138.33 761.597 C 1144.63 752.407 1151.15 752.526 1161.75 750.499 C 1158.15 748.28 1151.67 743.046 1147.85 743.359 L 1146.25 741.961 C 1154.51 727.483 1163 713.136 1171.72 698.927 L 1174.41 699.579 L 1175.65 701.738 C 1183.32 696.19 1195.96 671.679 1209.88 681.535 C 1213.55 688.219 1211.23 700.348 1210.72 708.569 C 1214.19 702.536 1217.35 698.66 1221.62 693.243 C 1221.96 687.652 1221.83 682.77 1222.38 676.934 C 1224.02 675.787 1229.88 675.409 1230.48 676.34 C 1237.78 687.504 1247.03 690.152 1256.47 696.914 C 1257.04 692.282 1258.2 688.491 1256.42 684.674 C 1254 684.728 1253.99 684.945 1251.98 683.696 C 1250.46 679.614 1251.4 674.497 1251.77 669.956 C 1253.8 671.943 1253.56 672.375 1255.9 672.871 C 1260.7 670.68 1262.97 666.408 1265.46 661.79 L 1273.18 652.282 C 1279.39 651.117 1284.58 651.322 1290.78 649.746 L 1295.39 648.751 C 1298.61 642.257 1292.44 605.234 1288.46 597.948 C 1289.44 589.215 1293.04 584.009 1297.59 576.518 z"/>
<path transform="translate(0,0)" fill="rgb(218,173,88)" d="M 1048.9 946.895 C 1051.46 942.595 1057.69 925.448 1060.01 923.044 L 1063.9 923.086 C 1059.69 935.303 1057.03 944.934 1053.75 957.452 C 1051.57 953.124 1049.66 952.182 1048.9 946.895 z"/>
<path transform="translate(0,0)" fill="rgb(239,157,19)" d="M 1178.68 511.273 C 1185.52 504.393 1192.47 500.844 1200.1 495.093 C 1208.48 488.772 1216.7 482.183 1225.07 475.808 C 1233 484.256 1272.22 530.94 1276.86 540.609 C 1285.98 559.64 1320.68 561.761 1318.89 573.757 C 1313 575.608 1296.05 571.709 1286.27 571.736 L 1277.08 578.851 C 1278.39 585.546 1280.95 591.024 1283.33 597.373 C 1287.53 608.625 1287.94 616.131 1288.4 627.845 C 1279.2 626.037 1277.83 623.98 1270.79 617.599 C 1264.59 622.768 1259.91 625.835 1266.62 634.458 C 1268.82 637.286 1272.48 639.274 1275.53 641.167 C 1272.31 646.246 1262.37 656.733 1265.46 661.79 C 1262.97 666.408 1260.7 670.68 1255.9 672.871 C 1253.56 672.375 1253.8 671.943 1251.77 669.956 C 1252.41 663.974 1253.45 655.581 1247.43 652.034 L 1245.22 653.136 C 1241.09 658.649 1241.35 663.539 1240.66 670.44 C 1223.91 668.048 1209.27 660.683 1191.59 659.858 C 1186.52 659.621 1153.31 631.811 1152.42 628.168 C 1147.62 608.428 1140.12 588.241 1136.57 568.096 C 1134.12 565.404 1134.14 566.157 1129.83 565.1 C 1134.28 562.311 1147.57 547.914 1145.92 542.184 C 1149.03 538.151 1155.47 532.709 1159.46 529.113 C 1171.18 550.81 1178.69 565.064 1198.9 578.129 C 1205.39 582.323 1209.87 604.44 1224.32 605.19 C 1232.54 606.427 1246.07 612.719 1250.82 612.947 L 1251.47 611.907 L 1250.88 609.641 C 1255.12 606.863 1272.21 611.629 1277.05 603.819 C 1276.69 601.535 1276.65 599.862 1273.89 598.482 C 1265.38 594.228 1249.08 589.547 1240.02 588.24 C 1237.1 585.46 1236.37 583.695 1233.07 583.455 C 1229.37 585.378 1231.04 585.051 1226.72 584.511 C 1223.27 581.918 1222.95 579.688 1220.83 577.342 C 1219.03 575.363 1214.36 576.182 1212.17 572.087 C 1200.98 551.145 1191.42 531.467 1178.68 511.273 z"/>
<path transform="translate(0,0)" fill="rgb(239,157,19)" d="M 1104.34 597.06 C 1107.91 603.582 1110.28 607.975 1118.02 610.311 C 1119.88 610.859 1121.76 611.358 1123.65 611.806 C 1131.27 628.171 1164.82 682.125 1183.38 681.032 C 1179.96 686.228 1174.68 693.718 1171.72 698.927 C 1163 713.136 1154.51 727.483 1146.25 741.961 C 1145.73 741.357 1144.61 740.507 1143.95 739.96 C 1128.48 741.386 1126.83 733.684 1113.75 728.525 C 1113.16 728.291 1109.25 729.208 1107.98 728.528 C 1100.44 724.521 1093.85 719.029 1087.17 713.784 C 1066.11 697.475 1057.72 690.755 1049.24 664.872 C 1060.05 658.474 1065.9 643.21 1073.87 633.454 C 1083.99 621.065 1092.07 607.439 1104.34 597.06 z"/>
<path transform="translate(0,0)" fill="rgb(239,157,19)" d="M 1346.16 365.299 C 1348.59 368.165 1353.65 374.714 1357.26 374.541 L 1358.13 372.552 L 1355.05 366.089 L 1356.29 364.953 C 1361.36 363.781 1373.22 365.151 1378.82 365.7 C 1390.41 372.212 1423.94 377.139 1426.26 389.422 C 1418.63 390.304 1402.14 392.574 1397.87 399.842 C 1404.51 403.83 1401.9 401.005 1406.16 408.414 C 1407.75 409.22 1409.57 410.539 1411.2 409.623 C 1424.62 402.037 1430.47 401.718 1445.49 401.159 L 1453.04 407.175 C 1414.09 420.018 1395.85 436.94 1375.74 472.601 C 1370.5 481.892 1355.12 500.084 1360.11 510.548 L 1362.63 515.716 C 1362.26 519.456 1362.96 517.918 1360.82 520.637 C 1351.1 521.257 1346.38 525.269 1337.85 530.175 C 1333.92 515.251 1328.29 487.436 1326.97 471.932 C 1326.03 460.928 1335.07 430.157 1339.67 419.385 C 1344.23 408.713 1349.87 410.646 1356.79 408.276 C 1357.78 404.519 1354.25 399.18 1352.29 395.336 C 1349.72 393.915 1342.71 389.569 1340.26 390.083 C 1329.13 392.425 1288.79 418.383 1281.1 416.747 C 1280.87 415.119 1280.44 414.181 1281.34 412.492 C 1290.85 394.616 1305.57 376.687 1324.04 367.674 C 1326.12 366.657 1329.22 368.458 1331.11 369.398 L 1346.16 365.299 z"/>
<path transform="translate(0,0)" fill="rgb(239,157,19)" d="M 1163.84 317.146 C 1167.43 319.246 1168.21 319.7 1172.18 320.829 C 1176.75 318.947 1191.66 319.39 1196.06 321.764 L 1195.81 322.83 L 1192.5 324.607 L 1192.87 325.921 C 1203.17 329.694 1206.36 324.444 1211.05 326.621 C 1211.61 331.602 1207.11 342.349 1205.66 348.072 C 1202.98 358.872 1202.41 370.088 1203.98 381.103 C 1205.71 392.982 1208.88 402.193 1215.3 412.238 C 1217.51 415.699 1218.63 418.545 1217.69 422.657 L 1215.83 424.342 C 1198.32 418.821 1187.96 415.504 1170.87 409.266 C 1175.98 413.288 1185 419.004 1188.53 423.298 C 1188.47 425.933 1187.86 427.705 1189.7 429.255 C 1197.5 435.828 1216.13 447.744 1224.72 452.102 C 1218.96 456.794 1211.89 461.882 1205.13 464.996 C 1174.75 444.368 1149.89 457.164 1130.51 432.815 C 1134.28 416.819 1134.74 410.628 1146.09 398.585 L 1163.42 403.006 C 1159.18 395.584 1154.65 389.855 1150.76 383.185 C 1155.67 369.521 1160.02 374.637 1163.44 368.396 C 1161.27 365.827 1156.8 361.428 1156.4 358.65 L 1160.77 355.921 C 1161.48 349.894 1149.32 346.347 1144.62 344.617 L 1146.46 341.313 C 1143.48 337.772 1141.41 334.404 1138.9 330.545 C 1143.25 329.106 1152.86 326.216 1157.03 325.963 C 1160.52 323.28 1161.57 320.905 1163.84 317.146 z"/>
<path transform="translate(0,0)" fill="rgb(0,0,0)" d="M 1138.9 330.545 C 1143.25 329.106 1152.86 326.216 1157.03 325.963 C 1159.85 327.441 1162.36 326.943 1165.64 326.806 C 1172.07 327.566 1184.26 328.426 1187.18 335.427 C 1182.31 343.243 1163.3 336.614 1156.72 342.414 C 1151.91 346.654 1150.58 344.844 1146.46 341.313 C 1143.48 337.772 1141.41 334.404 1138.9 330.545 z"/>
<path transform="translate(0,0)" fill="rgb(238,238,241)" d="M 1163.84 317.146 C 1167.43 319.246 1168.21 319.7 1172.18 320.829 C 1171.07 324.198 1169.14 324.794 1165.64 326.806 C 1162.36 326.943 1159.85 327.441 1157.03 325.963 C 1160.52 323.28 1161.57 320.905 1163.84 317.146 z"/>
<path transform="translate(0,0)" fill="rgb(239,157,19)" d="M 885.688 976.978 C 905.73 962.334 902.299 943.452 911.322 932.279 C 915.824 932.459 925.653 943.405 940.089 946.546 C 944.604 944.848 941.218 945.491 944.445 940.812 C 957.661 942.17 970.397 945.172 983.453 945.403 L 973.449 955.251 C 966.238 957.416 957.965 957.058 951.716 959.736 L 951.768 961.002 C 964.544 966.514 978.627 960.403 990.934 955.601 C 991.395 957.515 991.154 957.674 990.791 959.619 C 1004.37 965.043 1040.32 942.661 1047 944 L 1048.9 946.895 C 1049.66 952.182 1051.57 953.124 1053.75 957.452 C 1052.47 961.67 1048.86 976.834 1047.54 979.232 C 1041.72 970.615 1034.75 974.56 1027.09 973.45 C 1019.03 965.515 1013.71 972.179 1004.3 977.195 C 987.262 986.284 893.614 1007.88 883.237 990.609 C 882.717 985.751 884.327 981.753 885.688 976.978 z"/>
<path transform="translate(0,0)" fill="rgb(239,157,19)" d="M 1678.1 490.947 L 1698.47 491.051 C 1714.04 516.356 1709.32 548.129 1695.94 574.017 C 1694.84 576.141 1688.62 578.21 1687.54 580.994 C 1689.32 583.156 1690.33 584.216 1692.35 586.163 C 1690.96 586.541 1674.19 585.808 1670.23 586.006 C 1666.13 580.229 1664.99 579.001 1659.73 574.233 C 1679.9 532.023 1678.44 537.919 1678.1 490.947 z"/>
<path transform="translate(0,0)" fill="rgb(239,157,19)" d="M 1279.68 582.083 C 1286.58 573.593 1287.21 574.055 1297.59 576.518 C 1293.04 584.009 1289.44 589.215 1288.46 597.948 C 1284.83 593.999 1281.69 586.979 1279.68 582.083 z"/>
<path transform="translate(0,0)" fill="rgb(238,238,241)" d="M 1290.45 318.793 C 1298.07 315.195 1311.99 309.715 1320.72 309.757 C 1323.47 309.771 1321.94 310.214 1325.95 309.449 L 1326.75 309.287 L 1326.18 314.707 C 1329.5 316.875 1331.62 315.155 1337.11 316.105 C 1328.51 317.6 1300.78 318.224 1290.45 318.793 z"/>
<path transform="translate(0,0)" fill="rgb(246,240,206)" d="M 1183.38 681.032 L 1186.62 681.159 C 1186.92 686.249 1177.91 694.483 1175.65 701.738 L 1174.41 699.579 L 1171.72 698.927 C 1174.68 693.718 1179.96 686.228 1183.38 681.032 z"/>
<path transform="translate(0,0)" fill="rgb(218,173,88)" d="M 1273.18 652.282 C 1274.37 650.98 1275.58 649.688 1276.79 648.407 C 1280.19 644.83 1280.81 643.861 1285.45 643.726 C 1288.6 645.446 1288.85 646.499 1290.78 649.746 C 1284.58 651.322 1279.39 651.117 1273.18 652.282 z"/>
<path transform="translate(0,0)" fill="rgb(18,16,13)" d="M 1129.8 774.2 C 1127.89 773.721 1128.15 773.947 1126.48 773.004 C 1126.93 767.884 1130.8 761.412 1135.91 760.249 L 1137.8 762.381 C 1136.57 764.293 1130.99 773.262 1129.8 774.2 z"/>
<path transform="translate(0,0)" fill="rgb(218,173,88)" d="M 1048.08 1011.99 C 1045.05 1007.46 1042.37 1004.14 1043.19 998.562 C 1045.54 994.846 1044.37 996.14 1048.79 993.766 C 1048.51 999.84 1048.28 1005.92 1048.08 1011.99 z"/>
<path transform="translate(0,0)" fill="rgb(254,254,254)" d="M 1383.46 955.331 C 1402.06 956.088 1419.62 966.578 1424.5 984.65 C 1428.2 998.36 1433.01 1018.7 1431.29 1032.53 C 1425.04 1083.05 1402.46 1127.71 1375.45 1170.03 C 1369.34 1179.59 1359.79 1187.2 1355.13 1196.55 L 1354.61 1197.6 C 1331.98 1209.35 1310.69 1228.26 1285.76 1228.22 C 1264.08 1223.15 1243.74 1202.74 1244.11 1179.52 C 1244.29 1168.26 1246.08 1158.42 1247.27 1147.4 C 1248.52 1135.81 1250.08 1133.44 1257.85 1125.14 L 1254.03 1113.28 C 1274.75 1048.53 1310.11 1069.18 1318.94 1055.18 C 1322.84 1048.99 1321.64 1038.73 1322.78 1031.55 C 1325.44 1014.97 1334.22 990.864 1344.27 977.473 C 1354.66 963.611 1366.66 957.746 1383.46 955.331 z"/>
<path transform="translate(0,0)" fill="rgb(0,0,0)" d="M 1328.64 1132.23 C 1360 1133.65 1336.92 1169.37 1327.09 1180.55 C 1326.72 1180.97 1327.5 1185.69 1325.35 1188.95 C 1318.68 1188.42 1312.82 1188.18 1306.12 1188.02 C 1301.47 1186.48 1302.23 1185.99 1301.79 1181.73 C 1296.79 1176.95 1286.84 1169 1292.81 1162 C 1302.77 1150.29 1312.81 1135.66 1328.64 1132.23 z"/>
<path transform="translate(0,0)" fill="rgb(0,0,0)" d="M 1390.7 1015.95 C 1406.76 1015.14 1409.16 1019.46 1408.82 1033.79 C 1401.61 1044.41 1400.66 1049.52 1396.59 1061.78 C 1388.48 1063.68 1382.19 1051.58 1379.46 1045.48 C 1380.07 1037.33 1383.33 1020.35 1390.7 1015.95 z"/>
<path transform="translate(0,0)" fill="rgb(0,0,0)" d="M 1342.52 1039.26 C 1348.14 1040.95 1350.54 1039.67 1355.98 1040.46 C 1366.96 1047.11 1355.8 1071.56 1352.35 1081.17 C 1342.31 1087.01 1339 1072.14 1334.05 1065.23 L 1333.29 1064.18 C 1337.05 1056.63 1339.26 1047.58 1342.52 1039.26 z"/>
<path transform="translate(0,0)" fill="rgb(0,0,0)" d="M 1393.51 1070.25 C 1397.54 1072.2 1405.76 1074.66 1410.14 1076.04 L 1410.36 1089.98 C 1403.47 1094.04 1397.2 1104.03 1390.46 1110.51 L 1386.76 1112.52 C 1381.57 1110.91 1383.13 1112.21 1378.52 1112.3 C 1373.62 1101.79 1391.37 1080.4 1393.51 1070.25 z"/>
<path transform="translate(0,0)" fill="rgb(254,254,254)" d="M 715.154 959.522 C 719.894 954.428 722.142 949.196 726.045 943.651 C 731.575 935.793 740.077 928.556 747.708 922.797 C 758.512 914.643 793.5 898.244 799.39 891.773 C 799.696 891.437 799.993 891.093 800.295 890.754 C 808.471 890.189 816.402 889.463 824.57 888.04 C 829.412 887.572 848.619 880.906 853.024 883.215 C 861.45 887.633 870.274 889.867 880.278 891.66 C 884.222 892.367 892.874 898.478 894.814 902.384 C 892.328 903.184 891.941 903.104 889.985 904.895 L 890.583 908.125 C 887.663 912.387 889.683 907.442 885.129 910.863 L 884.824 913.319 C 886.524 917.38 891.197 921.386 894.502 924.676 C 887.872 940.859 880.707 956.817 873.019 972.525 C 866.958 969.4 864.797 968.116 857.564 969.36 L 856.595 971.172 L 857.43 973.432 C 875.4 975.322 867.363 984.841 861.29 996.722 C 854.745 996.984 850.108 997.023 843.92 999.468 L 823.224 982.865 C 819.895 982.61 816.446 982.153 813.119 981.764 L 812.938 1003.58 C 815.511 1006.77 818.579 1010.23 821.264 1013.39 C 811.62 1032.59 810.51 1040.56 806.488 1061.51 C 793.852 1065.18 769.697 1069.73 757.052 1065.18 C 750.064 1061.91 741.965 1051.13 733.907 1058.81 C 723.64 1068.58 703.872 1048.24 705.093 1037.18 C 713.841 1037.6 738.061 1048.58 743.288 1042.54 C 739.788 1031.88 712.542 1027.77 701.002 1021.83 C 696.96 1009.94 697.9 1007.56 701.162 995.761 C 703.581 987.014 706.018 978.913 709.065 970.327 C 720.559 972.862 746.218 983.781 753.942 980.324 L 754.715 978.285 C 751.856 972.876 721.453 961.306 715.154 959.522 z"/>
<path transform="translate(0,0)" fill="rgb(254,254,254)" d="M 1819.68 392.19 C 1823.01 391.928 1826.56 391.371 1829.95 392.623 C 1846.92 398.894 1834.45 446.966 1847.32 451.075 C 1853.39 449.693 1856.93 444.939 1860.71 440.323 C 1879.05 451.652 1893.46 456.329 1879.99 480.747 C 1877.68 484.944 1874.51 495.857 1871.36 498.537 C 1868.78 498.025 1866.88 497.279 1864.55 498.281 C 1864.17 501.063 1866.86 505.386 1868.24 508.162 C 1864.92 510.831 1862 512.558 1860.49 516.411 C 1862.71 520.7 1866.62 516.598 1871.41 521.984 C 1873.06 538.159 1832.21 551.176 1820.53 556.016 C 1815.9 557.936 1809.46 552 1804.97 549.381 C 1798.85 540.821 1783.15 543.304 1772.69 542.467 L 1772.73 531.219 C 1772.65 500.414 1756.96 493.709 1737.02 473.77 C 1737.07 471.307 1737.36 470.274 1737.87 467.925 C 1736.24 464.752 1735.07 464.717 1731.8 462.578 C 1728.99 453.462 1721.5 443.982 1725.32 435.663 C 1736.02 412.348 1777.43 439.085 1785.37 435.339 C 1787.21 432.855 1788.22 432.063 1788.12 429.01 C 1786.38 426.148 1782.44 424.356 1779.38 422.548 C 1793.06 407.775 1800.28 398.614 1819.68 392.19 z"/>
<path transform="translate(0,0)" fill="rgb(239,157,19)" d="M 843.92 999.468 C 850.108 997.023 854.745 996.984 861.29 996.722 C 858.243 1002.49 852.669 1010.94 853.98 1017.02 L 855.709 1018.62 C 865.471 1017.52 878.964 1003.99 888.552 1001.99 C 910.286 997.453 931.305 1010.01 952.075 1013.89 C 972.429 1015.61 1022.86 1004.93 1041.08 997.314 C 1041.84 1015.26 1040.68 1021.41 1046.16 1039.2 C 1031.24 1040.03 1021.52 1043.74 1007.66 1045.62 C 994.189 1046.95 980.817 1045.94 967.305 1045.85 C 944.424 1045.7 923.027 1047.23 900.787 1040.95 C 891.056 1038.21 866.006 1025.32 858.58 1029.95 C 856.572 1042.33 906.308 1055.96 917.795 1057.38 C 951 1061.5 985.187 1059.28 1018.54 1057.77 C 1028.12 1057.34 1040.7 1053.29 1049.79 1053.58 C 1059 1053.88 1068.47 1061.14 1076.98 1064.51 C 1082.18 1066.56 1087.57 1065.66 1090.7 1068.1 C 1088.53 1072.49 1038.87 1091.1 1031.66 1090.38 L 1030.74 1089.04 L 1031.13 1088.39 C 1032.72 1085.71 1032.94 1085.2 1033.94 1082.28 L 1033.35 1080.26 C 1026.87 1077.26 1010.84 1091.69 1002.43 1094.77 C 987.257 1100.32 971.769 1106.69 955.448 1101.63 C 926.252 1095.64 877.274 1093.43 860.784 1063.74 C 853.368 1050.39 835.441 1021.86 844.287 1008.49 C 846.872 1004.49 847.395 1002.68 843.92 999.468 z"/>
<path transform="translate(0,0)" fill="rgb(239,157,19)" d="M 975.92 771.873 C 980.554 774.182 989.395 782.938 995.571 786.304 C 1029.81 804.965 1060.34 811.219 1097.79 817.729 C 1093.55 828.294 1071.14 882.719 1065.78 888.645 C 1035.62 891.204 996.357 882.322 971.786 864.4 C 963.078 858.049 953.85 848.746 944.184 841.433 C 946.078 827.829 968.31 782.635 975.92 771.873 z"/>
<path transform="translate(0,0)" fill="rgb(239,157,19)" d="M 1016.33 688.1 C 1019.92 690.84 1026.45 689.2 1031.77 688.656 C 1042.51 697.919 1072.62 741.021 1090.43 747.682 C 1102.18 752.079 1096.98 746.769 1109.94 758.531 C 1114.67 758.845 1119.18 758.737 1123 761.333 C 1124.2 766.746 1106.43 798.44 1103.16 804.506 C 1079.4 798.691 1039.54 785.9 1019.12 773.314 C 1015.95 757.075 1011.69 766.487 998.564 753.411 C 996.951 747.912 994.522 741.867 992.481 736.435 C 995.831 726.789 1010.32 695.949 1016.33 688.1 z"/>
<path transform="translate(0,0)" fill="rgb(239,157,19)" d="M 1320.32 406.962 L 1322.3 407.031 C 1322.87 408.874 1319.48 423.783 1318.85 427.266 C 1311.19 470.049 1322.28 497.457 1333.27 536.831 C 1323.62 542.735 1320.07 544.252 1309.05 546.753 L 1292.25 531.399 C 1289.5 528.718 1283.65 523.34 1280.27 520.643 C 1268.41 511.195 1259.93 488.388 1259.46 473.913 C 1259.34 470.293 1263.31 463.768 1262.85 453.027 L 1262.79 451.894 C 1267.09 446.231 1265.78 443.756 1264.45 437.11 C 1290.76 421.504 1288.09 417.933 1320.32 406.962 z"/>
<path transform="translate(0,0)" fill="rgb(239,157,19)" d="M 1480.32 429.144 C 1492.19 427.895 1504.1 434.327 1515.27 438.924 C 1510.89 449.048 1504.9 459.828 1500.24 470.196 C 1491.51 490.118 1484.46 510.739 1479.18 531.84 C 1468.42 530.129 1459.05 528.584 1448.44 526.167 C 1434.61 523.683 1422.22 521.456 1408.22 520.265 C 1415.12 503.611 1424.04 489.599 1429.54 471.761 C 1434.31 456.272 1464.85 434.912 1480.32 429.144 z"/>
<path transform="translate(0,0)" fill="rgb(239,157,19)" d="M 1543.67 448.544 C 1549.37 449.4 1587.82 462.6 1592.25 464.724 C 1611.33 473.871 1556.27 536.212 1548.14 547.511 C 1543.3 547.133 1537.28 546.042 1532.39 545.284 C 1521.6 543.572 1502.75 537.551 1491.52 534.37 C 1501.81 509.367 1517.02 480.264 1542.17 467.809 C 1543.68 468.045 1545.2 468.266 1546.71 468.472 C 1550.38 468.961 1552.68 469.564 1555.68 467.287 C 1556.46 461.81 1548.11 454.932 1543.67 448.544 z"/>
<path transform="translate(0,0)" fill="rgb(239,157,19)" d="M 934.553 863.388 C 943.107 867.434 953.52 874.63 963.904 879.369 C 998.578 895.191 1025.16 896.258 1061.24 900.488 C 1059.17 905.842 1057.95 910.639 1056.46 916.168 C 1051.93 920.718 1048.05 924.012 1043.12 928.155 C 1020.41 939.662 1015.1 926.133 994.048 922.542 C 970.297 918.492 944.165 917.935 920.935 910.807 C 922.806 892.393 927.682 880.198 934.553 863.388 z"/>
<path transform="translate(0,0)" fill="rgb(239,157,19)" d="M 1234.71 990.462 C 1235.78 990.235 1236.85 990.38 1238 990.418 C 1238.53 993.733 1236.82 995.694 1235.17 999.278 C 1231.64 1001.24 1228.4 1003.63 1224.65 1004.98 C 1223.64 1001.96 1224.06 1001.29 1222 1000.17 C 1216.53 1004.62 1217.13 1012.16 1213.92 1018.2 C 1207.55 1030.21 1199.06 1041.06 1192.99 1053.21 C 1191.77 1055.63 1191.9 1061.91 1191.89 1064.79 C 1189.15 1067.84 1186.54 1071.18 1183.95 1074.38 C 1173.09 1073.88 1161.56 1073.89 1150.69 1074.17 C 1142.77 1074.37 1135.9 1075.46 1127.86 1074.99 C 1124.28 1072.17 1125.09 1071.05 1122.71 1066.28 L 1120.58 1065.83 C 1116.94 1067.78 1113.35 1072.9 1110.56 1076.33 C 1107.09 1077.39 1102.15 1078.31 1098.5 1079.11 C 1093.18 1080.58 1085.03 1081.98 1079.43 1083.13 C 1091.54 1076.43 1092.14 1075.58 1097.7 1062.99 C 1107.31 1057.21 1109.79 1059.32 1118.75 1055.04 C 1129.7 1049.81 1139.6 1041.78 1150.12 1035.3 C 1151.23 1035.65 1154.83 1036.75 1155.71 1036.19 C 1185.7 1016.89 1195 993.599 1234.71 990.462 z"/>
<path transform="translate(0,0)" fill="rgb(239,157,19)" d="M 1621.18 473.687 C 1650.86 477.652 1653.78 476.11 1655.08 509.188 C 1656.19 537.415 1650.12 552.276 1638.52 577.124 C 1630.12 575.432 1625.3 573.821 1617.28 571.117 C 1605.55 566.749 1594.68 561.24 1582.97 556.888 C 1588.68 548.605 1594.4 540.335 1600.06 532.015 C 1609.88 517.55 1616.24 501.162 1622.97 485.123 C 1620.17 479.521 1619.5 479.03 1621.18 473.687 z"/>
<path transform="translate(0,0)" fill="rgb(239,157,19)" d="M 1240.41 325.925 C 1251.49 325.469 1276.41 336.064 1286.43 342.044 C 1272.3 364.789 1255.09 402.207 1267.37 428.218 L 1255.96 433.057 C 1248.96 435.311 1239.02 428.82 1231.88 425.293 C 1229.57 415.774 1225.83 406.247 1223.96 396.969 C 1222.51 389.785 1222.6 379.382 1222.03 371.561 C 1225.19 365.502 1227.03 358.523 1228.1 351.831 C 1231.4 331.172 1244.62 340.1 1248.92 337.516 C 1248.38 334.399 1242.87 328.86 1240.41 325.925 z"/>
<path transform="translate(0,0)" fill="rgb(239,157,19)" d="M 1264.26 993.755 C 1274.08 994.647 1292.06 1009.5 1289.62 1019.96 C 1283.96 1021.47 1280.69 1020.51 1275.88 1023.38 C 1274.44 1025.45 1273.43 1026.41 1273.9 1029.36 C 1275.94 1037.09 1263.29 1042.56 1261.58 1047.61 C 1256.39 1063.01 1250.07 1076.58 1246.12 1092.38 L 1244.36 1092.31 C 1242.16 1090.81 1240.98 1090.67 1238.42 1089.82 L 1237.66 1090.38 C 1226.34 1083.33 1222.9 1082.97 1210 1079.6 C 1209.89 1076.33 1209.64 1069.77 1210.42 1066.81 C 1217.57 1039.86 1241.2 1008.59 1264.26 993.755 z"/>
<path transform="translate(0,0)" fill="rgb(239,157,19)" d="M 828.597 1044.39 C 832.727 1047.35 832.974 1049.97 835.687 1053.92 C 855.982 1083.48 880.722 1104.35 914.108 1118.01 C 918.552 1119.82 921.963 1120.12 925.855 1121.98 L 925.884 1123.49 C 923.716 1126.36 920.874 1126.98 917.411 1128.36 L 917.783 1129.3 C 921.453 1130.97 921.949 1130.93 925.94 1130.24 L 925.149 1131.34 C 908.057 1135.63 896.436 1138.6 879.242 1133.94 C 858.927 1128.37 841.725 1114.82 831.542 1096.38 C 823.736 1082.48 824.345 1059.02 828.597 1044.39 z"/>
<path transform="translate(0,0)" fill="rgb(239,157,19)" d="M 611.116 970.723 C 633.067 978.018 639.293 980.344 662.657 984.539 C 648.395 1000.18 644.511 1002.68 646.747 1024.56 L 653.385 1028.79 L 653.643 1030.51 L 651.113 1031.75 C 632.407 1028.17 604.562 1019.82 589.454 1008.54 C 593.407 1000.36 597.181 990.536 601.981 982.747 C 603.187 980.792 605.097 981.096 607.747 980.685 C 610.133 978.296 610.403 974.273 611.116 970.723 z"/>
<path transform="translate(0,0)" fill="rgb(239,157,19)" d="M 264.981 851.188 C 270.487 856.595 268.459 874.376 269.823 881.599 C 270.237 883.794 272.195 887.958 273.18 890.07 C 252.68 897.207 248.382 903.004 230.644 911.732 C 230.04 905.632 229.98 904.437 227.665 898.774 C 221.464 888.07 214.237 883.843 204.326 876.935 C 219.989 867.284 247.458 856.358 264.981 851.188 z"/>
<path transform="translate(0,0)" fill="rgb(239,157,19)" d="M 523.44 964.476 C 526.479 954.598 530.398 939.093 538.448 932.627 C 547.48 929.402 576.804 949.18 582.656 956.269 C 579.818 967.289 578.404 976.315 576.611 987.593 C 572.161 983.675 550.697 973.51 545.68 975.68 L 545.845 978.455 C 538.221 974.103 530.831 969.223 523.44 964.476 z"/>
<path transform="translate(0,0)" fill="rgb(239,157,19)" d="M 466.279 882.343 C 476.737 888.364 503.561 906.118 512.691 913.764 C 511.669 925.536 509.37 932.468 506.223 943.746 C 499.983 938.286 474.446 919.673 466.81 922.343 L 468.694 926.531 C 461.56 922.512 455.541 918.622 449.848 912.623 C 453.945 904.033 460.958 890.175 466.279 882.343 z"/>
<path transform="translate(0,0)" fill="rgb(239,157,19)" d="M 1725.22 568.222 C 1757.59 512.911 1712.56 497.649 1712.55 486.254 C 1715.02 484.211 1719.81 484.193 1723.04 484.562 C 1745.68 487.143 1755.86 516.155 1756.8 535.606 C 1757 539.77 1754.25 546.549 1754.36 550.942 C 1754.27 556.212 1763.2 559.694 1756.39 563.846 C 1752.27 566.345 1746.72 570.295 1742.45 572.058 C 1732.42 569.895 1736.32 564.522 1725.22 568.222 z"/>
<path transform="translate(0,0)" fill="rgb(239,157,19)" d="M 343.513 839.498 C 346.098 839.182 344.771 839.123 347.607 840.866 C 353.449 850.778 345.175 870.465 338.886 879.052 C 332.828 879.649 313.162 882.468 308.732 880.348 C 302.931 872.247 304.861 865.39 302.468 856.072 C 301.65 852.886 298.891 847.772 297.288 844.719 C 309.974 840.806 329.702 840.453 343.513 839.498 z"/>
<path transform="translate(0,0)" fill="rgb(239,157,19)" d="M 379.412 845.032 C 398.626 847.357 424.501 855.761 440.712 866.268 C 433.883 871.406 428.065 876.356 421.581 881.887 C 417.45 886.999 414.023 890.913 409.52 895.704 C 403.275 892.901 387.15 887.899 384.821 883.067 L 386.578 879.756 C 393.892 866.118 386.143 856.783 379.412 845.032 z"/>
<path transform="translate(0,0)" fill="rgb(239,157,19)" d="M 192.361 888.899 C 196.737 893.675 203.433 899.972 204.259 906.264 C 202.106 912.375 198.456 912.91 202.28 919.866 C 204.019 923.029 204.775 924.067 204.286 927.484 C 202.784 928.664 201.884 929.673 200.154 930.184 C 192.553 930.789 183.927 936.085 177.95 940.619 C 169.712 928.149 161.588 922.858 149.527 914.702 C 154.13 914.401 158.43 914.397 161.739 910.893 C 160.216 909.272 160.598 909.951 159.731 907.954 C 170.622 900.506 178.8 899.397 192.361 888.899 z"/>
<path transform="translate(0,0)" fill="rgb(239,157,19)" d="M 1136 459.238 C 1145.39 463.228 1155.82 467.913 1165.47 470.985 C 1172.67 473.277 1181.27 474.284 1188.62 476.116 C 1177.22 487.08 1155.73 503.703 1146.88 513.937 C 1145.21 510.385 1145.33 509.878 1145.04 505.857 C 1151.1 498.648 1143.71 493.241 1137.94 489.302 C 1134.31 483.695 1135.79 466.475 1136 459.238 z"/>
<path transform="translate(0,0)" fill="rgb(239,157,19)" d="M 671.008 998.045 C 674.595 998.124 679.692 998.393 683.148 998.147 C 682.48 1002.83 683.012 1012.9 683.136 1018.02 L 668.973 1018.07 C 669.415 1010.68 669.906 1005.36 671.008 998.045 z"/>
<path transform="translate(0,0)" fill="rgb(187,141,100)" d="M 1092.71 581.886 L 1093.49 583.397 C 1088.23 593.266 1063.67 618.97 1055.08 628.418 L 1054.42 627.644 C 1060.04 616.704 1083.54 591.648 1092.71 581.886 z"/>
<path transform="translate(0,0)" fill="rgb(238,238,241)" d="M 1767.32 545.28 C 1772.19 545.98 1773.92 546.458 1775.81 550.988 L 1774.54 553.24 C 1771.97 554.538 1770.36 555.748 1767.56 555.476 C 1765.84 552.455 1766.93 549.418 1767.32 545.28 z"/>
<path transform="translate(0,0)" fill="rgb(0,0,0)" fill-opacity="0.941176" d="M 1117.98 1075.67 L 1119.46 1076.83 C 1119.2 1079.73 1117.16 1081.48 1115.16 1084.15 L 1112.41 1082.52 C 1112.98 1079.45 1115.29 1078.22 1117.98 1075.67 z"/>
<path transform="translate(0,0)" fill="rgb(187,141,100)" d="M 1220.49 471.897 C 1221.12 471.945 1221.88 472.294 1222.53 472.526 C 1220.6 475.495 1216.32 477.394 1213.06 479.261 L 1211.63 478.515 C 1212.95 475.695 1217.56 473.609 1220.49 471.897 z"/>
<path transform="translate(0,0)" fill="rgb(249,209,184)" d="M 1529.39 760.645 C 1544.2 738.474 1545.93 752.856 1562.01 746.456 C 1569.4 747.962 1586.08 759.237 1593.52 763.781 C 1607.05 771.923 1620.67 779.935 1634.36 787.815 C 1640.67 791.482 1660.5 804.771 1667.05 802.092 C 1669.81 794.689 1660.21 761.348 1659.37 752.105 C 1659.22 750.424 1653.83 742.769 1653 740.164 C 1647.01 721.573 1664.34 724.034 1676.56 721.212 C 1709.07 750.662 1737.36 790.827 1771.85 814.687 C 1775.49 805.182 1765.21 774.662 1761.55 764.487 C 1765.9 765.013 1770.73 766.07 1775.07 766.904 C 1780.42 772.329 1782.5 775.092 1789.51 777.888 C 1812.9 792.251 1814.28 797.853 1830.44 819.031 C 1853.56 848.543 1870.54 878.502 1883.82 913.622 C 1892.57 936.758 1896.01 956.371 1897.54 981.041 C 1898.07 989.603 1910.56 987.238 1918.71 989.097 C 1931.23 991.953 1945.48 999.294 1951.18 1011.67 C 1958.95 1040.76 1935.52 1054.04 1911.26 1060.79 C 1910.43 1061.02 1896.5 1074.21 1895.35 1075.78 C 1878.28 1072.4 1846.55 1070.22 1829.02 1069.17 C 1812.55 1068.18 1739.33 1056.26 1727.5 1061.36 C 1724.87 1067.1 1725.87 1070.98 1726.87 1077.03 L 1726.23 1075.73 C 1730.11 1093.25 1745.36 1127.19 1761.17 1136.42 C 1766.32 1139.43 1771.57 1140.52 1776.36 1144.15 C 1790.09 1126.15 1796.62 1120.02 1820.08 1123.71 C 1828.57 1113.15 1835.32 1107.52 1849.34 1106.06 C 1872.1 1103.69 1887.48 1118.06 1884.84 1141.2 C 1898.09 1145.87 1917.78 1153.42 1909.99 1173.12 C 1906.59 1181.71 1898.33 1186.46 1890.37 1190.51 C 1889.45 1194.34 1888.72 1197.54 1887.36 1201.27 C 1876.15 1208.92 1864.13 1209.58 1850.85 1207.39 C 1837.62 1205.2 1827.71 1196.25 1817.72 1187.93 C 1797.55 1192.67 1778.71 1198.52 1758.6 1193.84 C 1752.19 1192.34 1745.19 1190.89 1742.32 1197.74 C 1738.54 1205.2 1735.78 1212.99 1732.78 1220.78 C 1733.86 1224.76 1735.08 1227.91 1734.62 1231.97 C 1722.64 1237.64 1679.5 1208.42 1665.47 1215.33 C 1661.88 1217.09 1668.25 1208.01 1649.08 1211.37 C 1647.23 1214.19 1645.24 1217.44 1643.22 1220.08 C 1639.39 1221.17 1635.54 1222.32 1631.68 1223.26 C 1621.56 1236.64 1615.2 1246.02 1610.13 1262.24 C 1622.71 1265.66 1637.36 1269.41 1646.53 1278.5 C 1647.38 1279.33 1648.27 1279.48 1649.38 1279.68 C 1657.86 1274.14 1649.44 1249.07 1673.77 1255.84 C 1677.55 1249.32 1679.01 1243.67 1686.93 1244.84 C 1691.97 1245.58 1699.59 1242.23 1704.7 1241.5 C 1733.3 1234.78 1754.07 1250.03 1752.17 1280.07 C 1751.47 1293.81 1743.57 1305.03 1738.12 1317.11 C 1736.28 1321.19 1738.65 1329.94 1737.68 1334.49 C 1736.02 1342.52 1731.66 1349.77 1728.47 1357.18 C 1723.83 1367.97 1717.53 1377.11 1708.38 1384.54 C 1681.48 1406.37 1631.61 1432.42 1603.54 1398.67 C 1589.32 1381.58 1591.63 1355.74 1599.75 1336.5 L 1590.91 1332.73 C 1584.01 1322.29 1578.5 1312.28 1568.21 1305.04 C 1555.88 1306.43 1543.44 1308.14 1531.09 1309.82 C 1521.07 1311.19 1506.88 1309.39 1498.11 1313.23 C 1479.33 1321.45 1451.49 1309.69 1436.22 1298.75 C 1429.25 1298.85 1420.57 1298.23 1414.8 1301.84 C 1409.19 1308.52 1413.65 1323.27 1393.08 1320.26 C 1390.85 1319.93 1376.32 1333.41 1372.47 1335.16 C 1358.7 1341.38 1345.41 1334.16 1335.04 1324.85 C 1325.06 1315.89 1319.47 1307.99 1318.74 1294.22 C 1317.13 1263.4 1338.12 1241.14 1356.52 1219.15 C 1362.96 1211.44 1377.53 1201.74 1387.76 1201.1 C 1390.83 1200.91 1399.87 1202.4 1402.64 1201.95 C 1429.42 1197.6 1440.86 1193.76 1466.56 1204.89 C 1474.23 1199.75 1479.41 1193.17 1485.74 1187.15 C 1501.28 1172.56 1506.37 1161.67 1497.79 1140.88 C 1491.46 1125.55 1487.57 1107.19 1488.25 1090.32 C 1487.77 1078.32 1495 1075.9 1505.74 1078.48 C 1513.83 1080.43 1524.63 1085.24 1533.07 1085.7 C 1541.15 1086.14 1552.78 1092.48 1559.42 1088.87 C 1556.75 1080.81 1514.27 1071.26 1517.07 1019.23 C 1517.45 1012.26 1518.41 1001.62 1521.7 995.355 C 1524.22 990.548 1529.4 985.215 1529.69 979.72 C 1523.95 972.568 1495.19 989.987 1484.61 978.706 C 1483.75 975.062 1483.43 976.61 1484.68 973.794 C 1494.22 968.562 1512.84 972.748 1521.69 966.955 C 1524.88 954.728 1494.65 960.346 1486.79 957.686 C 1490.63 957.499 1493.76 957.808 1496.92 955.839 L 1495.88 954.682 C 1490.31 953.593 1484.86 952.954 1479.75 955.963 C 1478.85 954.233 1479.01 954.286 1479.31 952.325 L 1481.75 951.554 L 1487.54 946.515 L 1485.41 943.423 C 1490.8 945.062 1497 947.415 1502.37 945.649 C 1501.49 944.944 1500.62 944.484 1499.6 943.988 C 1500.27 941.253 1502.6 940.142 1505.19 937.987 C 1495.26 935.824 1471.83 933.026 1467.12 924.045 C 1467.23 917.279 1469.64 923.424 1471.89 916.382 C 1470.78 910.325 1465.44 904.011 1461.6 899.273 C 1468.65 900.438 1473.81 901.026 1480.13 904.461 C 1480.51 891.26 1484.02 889.523 1484.35 879.722 C 1488.66 876.189 1495.74 876.084 1501.18 875.667 C 1509.47 879.227 1513.66 887.172 1522.2 881.475 C 1523.93 874.849 1524.09 873.391 1528.17 868.076 C 1524.89 864.697 1521.91 860.127 1517.85 859.031 C 1515.07 855.785 1506.12 843.048 1503.37 839.239 C 1502.72 838.346 1503.16 832.648 1503.28 831.096 C 1497.93 828.775 1474.4 821.263 1473.17 818 C 1477 814.303 1486.64 812.616 1492.1 811.241 C 1504.61 815.533 1566.46 844.706 1573.57 842.711 C 1575.8 839.964 1576.91 834.46 1575.77 831.183 C 1570.33 815.521 1565.15 799.527 1558.71 784.241 C 1552.55 769.619 1543.26 765.705 1529.39 760.645 z M 1853.34 880.784 C 1854.74 884.948 1858.34 896.496 1860.29 899.284 C 1878.41 925.269 1885.36 955.99 1886.48 987.279 C 1886.83 997.173 1884.19 998.219 1895.6 1002.32 C 1909.53 999.827 1931.01 991.451 1933.02 1012.88 C 1933.95 1022.76 1933.47 1031.54 1926.65 1039.31 C 1920.04 1046.85 1915.55 1048.82 1907.21 1043.7 C 1901.75 1043.24 1893.28 1047.29 1892.45 1053.66 C 1892.24 1055.23 1893.98 1058.31 1894.5 1060.48 C 1892.81 1063.62 1894 1062.43 1890.76 1064.11 C 1883.69 1064.25 1875.61 1061.63 1867.83 1061.06 L 1767.2 1053.14 C 1747.95 1051.65 1718.56 1047.35 1700.44 1050.74 C 1707.89 1073.78 1726.26 1100.37 1736.1 1125.43 C 1731.82 1126.13 1709.65 1130.91 1707.01 1130.99 C 1697.56 1131.26 1666.23 1123.66 1655.27 1120.9 C 1654.81 1120.78 1651.5 1117.62 1650.95 1117.07 C 1648.21 1116.42 1646.71 1117.48 1644.07 1118.63 C 1637.28 1115.65 1630.86 1089.57 1626.74 1084.22 C 1622.78 1079.08 1614.37 1082.22 1606.37 1074.32 C 1571.95 1081.28 1544.69 1075.04 1535.83 1036.53 C 1530.93 1015.22 1542.73 995.745 1563.42 988.51 C 1576.31 984.002 1601.89 996.32 1611.49 995.211 C 1612.25 991.523 1607.81 989.538 1604.93 987.556 C 1589.28 974.827 1578.61 975.56 1560.09 969.062 L 1548.18 972.891 C 1544.85 969.734 1534.67 953.827 1531.45 953.565 C 1521.5 952.756 1510.44 950.957 1500.47 951.115 C 1493.8 951.221 1488.9 952.701 1481.75 951.554 L 1479.31 952.325 C 1479.01 954.286 1478.85 954.233 1479.75 955.963 C 1484.86 952.954 1490.31 953.593 1495.88 954.682 L 1496.92 955.839 C 1493.76 957.808 1490.63 957.499 1486.79 957.686 C 1494.65 960.346 1524.88 954.728 1521.69 966.955 C 1512.84 972.748 1494.22 968.562 1484.68 973.794 C 1483.43 976.61 1483.75 975.062 1484.61 978.706 C 1495.19 989.987 1523.95 972.568 1529.69 979.72 C 1529.4 985.215 1524.22 990.548 1521.7 995.355 C 1518.41 1001.62 1517.45 1012.26 1517.07 1019.23 C 1514.27 1071.26 1556.75 1080.81 1559.42 1088.87 C 1552.78 1092.48 1541.15 1086.14 1533.07 1085.7 C 1524.63 1085.24 1513.83 1080.43 1505.74 1078.48 C 1495 1075.9 1487.77 1078.32 1488.25 1090.32 C 1487.57 1107.19 1491.46 1125.55 1497.79 1140.88 C 1506.37 1161.67 1501.28 1172.56 1485.74 1187.15 C 1479.41 1193.17 1474.23 1199.75 1466.56 1204.89 C 1440.86 1193.76 1429.42 1197.6 1402.64 1201.95 C 1399.87 1202.4 1390.83 1200.91 1387.76 1201.1 C 1377.53 1201.74 1362.96 1211.44 1356.52 1219.15 C 1338.12 1241.14 1317.13 1263.4 1318.74 1294.22 C 1319.47 1307.99 1325.06 1315.89 1335.04 1324.85 C 1345.41 1334.16 1358.7 1341.38 1372.47 1335.16 C 1376.32 1333.41 1390.85 1319.93 1393.08 1320.26 C 1413.65 1323.27 1409.19 1308.52 1414.8 1301.84 C 1420.57 1298.23 1429.25 1298.85 1436.22 1298.75 C 1451.49 1309.69 1479.33 1321.45 1498.11 1313.23 C 1506.88 1309.39 1521.07 1311.19 1531.09 1309.82 C 1543.44 1308.14 1555.88 1306.43 1568.21 1305.04 C 1578.5 1312.28 1584.01 1322.29 1590.91 1332.73 L 1599.75 1336.5 C 1591.63 1355.74 1589.32 1381.58 1603.54 1398.67 C 1631.61 1432.42 1681.48 1406.37 1708.38 1384.54 C 1717.53 1377.11 1723.83 1367.97 1728.47 1357.18 C 1731.66 1349.77 1736.02 1342.52 1737.68 1334.49 C 1738.65 1329.94 1736.28 1321.19 1738.12 1317.11 C 1743.57 1305.03 1751.47 1293.81 1752.17 1280.07 C 1754.07 1250.03 1733.3 1234.78 1704.7 1241.5 C 1699.59 1242.23 1691.97 1245.58 1686.93 1244.84 C 1679.01 1243.67 1677.55 1249.32 1673.77 1255.84 C 1649.44 1249.07 1657.86 1274.14 1649.38 1279.68 C 1648.27 1279.48 1647.38 1279.33 1646.53 1278.5 C 1637.36 1269.41 1622.71 1265.66 1610.13 1262.24 C 1615.2 1246.02 1621.56 1236.64 1631.68 1223.26 C 1635.54 1222.32 1639.39 1221.17 1643.22 1220.08 C 1645.24 1217.44 1647.23 1214.19 1649.08 1211.37 C 1668.25 1208.01 1661.88 1217.09 1665.47 1215.33 C 1679.5 1208.42 1722.64 1237.64 1734.62 1231.97 C 1735.08 1227.91 1733.86 1224.76 1732.78 1220.78 C 1735.78 1212.99 1738.54 1205.2 1742.32 1197.74 C 1745.19 1190.89 1752.19 1192.34 1758.6 1193.84 C 1778.71 1198.52 1797.55 1192.67 1817.72 1187.93 C 1827.71 1196.25 1837.62 1205.2 1850.85 1207.39 C 1864.13 1209.58 1876.15 1208.92 1887.36 1201.27 C 1888.72 1197.54 1889.45 1194.34 1890.37 1190.51 C 1898.33 1186.46 1906.59 1181.71 1909.99 1173.12 C 1917.78 1153.42 1898.09 1145.87 1884.84 1141.2 C 1887.48 1118.06 1872.1 1103.69 1849.34 1106.06 C 1835.32 1107.52 1828.57 1113.15 1820.08 1123.71 C 1796.62 1120.02 1790.09 1126.15 1776.36 1144.15 C 1771.57 1140.52 1766.32 1139.43 1761.17 1136.42 C 1745.36 1127.19 1730.11 1093.25 1726.23 1075.73 L 1726.87 1077.03 C 1725.87 1070.98 1724.87 1067.1 1727.5 1061.36 C 1739.33 1056.26 1812.55 1068.18 1829.02 1069.17 C 1846.55 1070.22 1878.28 1072.4 1895.35 1075.78 C 1896.5 1074.21 1910.43 1061.02 1911.26 1060.79 C 1935.52 1054.04 1958.95 1040.76 1951.18 1011.67 C 1945.48 999.294 1931.23 991.953 1918.71 989.097 C 1910.56 987.238 1898.07 989.603 1897.54 981.041 C 1896.01 956.371 1892.57 936.758 1883.82 913.622 C 1870.54 878.502 1853.56 848.543 1830.44 819.031 C 1814.28 797.853 1812.9 792.251 1789.51 777.888 C 1787.42 779.705 1785.24 780.832 1785.02 783.011 C 1805.69 810.071 1836.57 837.186 1851.56 867.974 C 1852.84 870.6 1853.16 877.558 1853.34 880.784 z M 1684.57 776.048 C 1691.63 772.773 1693.41 772.607 1700.95 771.602 C 1694.55 764.679 1687.65 756.627 1679.72 751.617 C 1679.8 762.668 1680.85 765.646 1684.57 776.048 z"/>
<path transform="translate(0,0)" fill="rgb(0,0,0)" d="M 1789.51 777.888 C 1812.9 792.251 1814.28 797.853 1830.44 819.031 C 1853.56 848.543 1870.54 878.502 1883.82 913.622 C 1892.57 936.758 1896.01 956.371 1897.54 981.041 C 1898.07 989.603 1910.56 987.238 1918.71 989.097 C 1931.23 991.953 1945.48 999.294 1951.18 1011.67 C 1958.95 1040.76 1935.52 1054.04 1911.26 1060.79 C 1910.43 1061.02 1896.5 1074.21 1895.35 1075.78 C 1878.28 1072.4 1846.55 1070.22 1829.02 1069.17 C 1812.55 1068.18 1739.33 1056.26 1727.5 1061.36 C 1724.87 1067.1 1725.87 1070.98 1726.87 1077.03 L 1726.23 1075.73 C 1730.11 1093.25 1745.36 1127.19 1761.17 1136.42 C 1766.32 1139.43 1771.57 1140.52 1776.36 1144.15 C 1790.09 1126.15 1796.62 1120.02 1820.08 1123.71 C 1828.57 1113.15 1835.32 1107.52 1849.34 1106.06 C 1872.1 1103.69 1887.48 1118.06 1884.84 1141.2 C 1898.09 1145.87 1917.78 1153.42 1909.99 1173.12 C 1906.59 1181.71 1898.33 1186.46 1890.37 1190.51 C 1889.45 1194.34 1888.72 1197.54 1887.36 1201.27 C 1876.15 1208.92 1864.13 1209.58 1850.85 1207.39 C 1837.62 1205.2 1827.71 1196.25 1817.72 1187.93 C 1797.55 1192.67 1778.71 1198.52 1758.6 1193.84 C 1752.19 1192.34 1745.19 1190.89 1742.32 1197.74 C 1738.54 1205.2 1735.78 1212.99 1732.78 1220.78 C 1733.86 1224.76 1735.08 1227.91 1734.62 1231.97 C 1722.64 1237.64 1679.5 1208.42 1665.47 1215.33 C 1661.88 1217.09 1668.25 1208.01 1649.08 1211.37 C 1647.23 1214.19 1645.24 1217.44 1643.22 1220.08 C 1639.39 1221.17 1635.54 1222.32 1631.68 1223.26 C 1621.56 1236.64 1615.2 1246.02 1610.13 1262.24 C 1622.71 1265.66 1637.36 1269.41 1646.53 1278.5 C 1647.38 1279.33 1648.27 1279.48 1649.38 1279.68 C 1657.86 1274.14 1649.44 1249.07 1673.77 1255.84 C 1677.55 1249.32 1679.01 1243.67 1686.93 1244.84 C 1691.97 1245.58 1699.59 1242.23 1704.7 1241.5 C 1733.3 1234.78 1754.07 1250.03 1752.17 1280.07 C 1751.47 1293.81 1743.57 1305.03 1738.12 1317.11 C 1736.28 1321.19 1738.65 1329.94 1737.68 1334.49 C 1736.02 1342.52 1731.66 1349.77 1728.47 1357.18 C 1723.83 1367.97 1717.53 1377.11 1708.38 1384.54 C 1681.48 1406.37 1631.61 1432.42 1603.54 1398.67 C 1589.32 1381.58 1591.63 1355.74 1599.75 1336.5 L 1590.91 1332.73 C 1584.01 1322.29 1578.5 1312.28 1568.21 1305.04 C 1555.88 1306.43 1543.44 1308.14 1531.09 1309.82 C 1521.07 1311.19 1506.88 1309.39 1498.11 1313.23 C 1479.33 1321.45 1451.49 1309.69 1436.22 1298.75 C 1429.25 1298.85 1420.57 1298.23 1414.8 1301.84 C 1409.19 1308.52 1413.65 1323.27 1393.08 1320.26 C 1390.85 1319.93 1376.32 1333.41 1372.47 1335.16 C 1358.7 1341.38 1345.41 1334.16 1335.04 1324.85 C 1325.06 1315.89 1319.47 1307.99 1318.74 1294.22 C 1317.13 1263.4 1338.12 1241.14 1356.52 1219.15 C 1362.96 1211.44 1377.53 1201.74 1387.76 1201.1 C 1390.83 1200.91 1399.87 1202.4 1402.64 1201.95 C 1429.42 1197.6 1440.86 1193.76 1466.56 1204.89 C 1474.23 1199.75 1479.41 1193.17 1485.74 1187.15 C 1501.28 1172.56 1506.37 1161.67 1497.79 1140.88 C 1491.46 1125.55 1487.57 1107.19 1488.25 1090.32 C 1487.77 1078.32 1495 1075.9 1505.74 1078.48 C 1513.83 1080.43 1524.63 1085.24 1533.07 1085.7 C 1541.15 1086.14 1552.78 1092.48 1559.42 1088.87 C 1556.75 1080.81 1514.27 1071.26 1517.07 1019.23 C 1517.45 1012.26 1518.41 1001.62 1521.7 995.355 C 1524.22 990.548 1529.4 985.215 1529.69 979.72 C 1523.95 972.568 1495.19 989.987 1484.61 978.706 C 1483.75 975.062 1483.43 976.61 1484.68 973.794 C 1494.22 968.562 1512.84 972.748 1521.69 966.955 C 1524.88 954.728 1494.65 960.346 1486.79 957.686 C 1490.63 957.499 1493.76 957.808 1496.92 955.839 L 1495.88 954.682 C 1490.31 953.593 1484.86 952.954 1479.75 955.963 C 1478.85 954.233 1479.01 954.286 1479.31 952.325 L 1481.75 951.554 C 1488.9 952.701 1493.8 951.221 1500.47 951.115 C 1510.44 950.957 1521.5 952.756 1531.45 953.565 C 1534.67 953.827 1544.85 969.734 1548.18 972.891 L 1560.09 969.062 C 1578.61 975.56 1589.28 974.827 1604.93 987.556 C 1607.81 989.538 1612.25 991.523 1611.49 995.211 C 1601.89 996.32 1576.31 984.002 1563.42 988.51 C 1542.73 995.745 1530.93 1015.22 1535.83 1036.53 C 1544.69 1075.04 1571.95 1081.28 1606.37 1074.32 C 1614.37 1082.22 1622.78 1079.08 1626.74 1084.22 C 1630.86 1089.57 1637.28 1115.65 1644.07 1118.63 C 1646.71 1117.48 1648.21 1116.42 1650.95 1117.07 C 1651.5 1117.62 1654.81 1120.78 1655.27 1120.9 C 1666.23 1123.66 1697.56 1131.26 1707.01 1130.99 C 1709.65 1130.91 1731.82 1126.13 1736.1 1125.43 C 1726.26 1100.37 1707.89 1073.78 1700.44 1050.74 C 1718.56 1047.35 1747.95 1051.65 1767.2 1053.14 L 1867.83 1061.06 C 1875.61 1061.63 1883.69 1064.25 1890.76 1064.11 C 1894 1062.43 1892.81 1063.62 1894.5 1060.48 C 1893.98 1058.31 1892.24 1055.23 1892.45 1053.66 C 1893.28 1047.29 1901.75 1043.24 1907.21 1043.7 C 1915.55 1048.82 1920.04 1046.85 1926.65 1039.31 C 1933.47 1031.54 1933.95 1022.76 1933.02 1012.88 C 1931.01 991.451 1909.53 999.827 1895.6 1002.32 C 1884.19 998.219 1886.83 997.173 1886.48 987.279 C 1885.36 955.99 1878.41 925.269 1860.29 899.284 C 1858.34 896.496 1854.74 884.948 1853.34 880.784 C 1853.16 877.558 1852.84 870.6 1851.56 867.974 C 1836.57 837.186 1805.69 810.071 1785.02 783.011 C 1785.24 780.832 1787.42 779.705 1789.51 777.888 z M 1542.48 1119.3 C 1537.17 1117.23 1525.58 1113.6 1523.06 1108.91 L 1524.41 1107.66 C 1531.89 1106.23 1540.15 1106.91 1547.68 1107.83 C 1544.69 1096.95 1521.88 1097.2 1513.18 1095.61 C 1509.33 1094.91 1499.12 1089.32 1498.05 1098.18 C 1496.09 1114.48 1504.66 1145.65 1511.27 1160.21 C 1521.02 1154.26 1528.58 1147.12 1537.66 1140.32 C 1539.04 1132.45 1539.85 1126.92 1542.48 1119.3 z M 1356.41 1327.09 C 1364.44 1325.84 1377.24 1321.27 1384.09 1316.54 C 1388.85 1313.26 1388.54 1312.77 1389.44 1308.08 C 1379.1 1302.45 1367.3 1309.7 1358.86 1315.95 L 1350.67 1304.64 C 1349.47 1301.09 1349.62 1297.4 1348.51 1294.33 C 1346.67 1289.29 1342.62 1288.52 1341.78 1282.38 L 1339.23 1280.44 C 1334.05 1292.64 1332.65 1304.44 1341.39 1315.5 C 1344.98 1322.21 1349.65 1323.72 1356.41 1327.09 z"/>
<path transform="translate(0,0)" fill="rgb(254,254,254)" d="M 1710.8 1247.21 C 1743.12 1244.78 1735.39 1278.53 1730.38 1298.7 C 1727.06 1312.07 1716.25 1329.92 1714.19 1342.59 L 1715.25 1343.22 L 1720.42 1340.44 C 1708.29 1374.18 1659.61 1410.83 1622.65 1403.06 C 1617.44 1399.65 1609.37 1392.38 1610.5 1385.57 C 1610.87 1385.21 1636.16 1374.37 1640.19 1372.27 C 1654.32 1364.89 1667.37 1355.82 1680.53 1346.86 C 1678.02 1347.75 1672.97 1349.97 1670.71 1349.41 C 1676.37 1341.31 1684.81 1333.08 1689.75 1323.71 C 1690.98 1321.39 1695.15 1320.45 1697.63 1317.71 C 1697.04 1313.44 1686.83 1305.2 1685.04 1298.53 C 1680.8 1282.75 1684.35 1263.96 1697.01 1252.92 C 1700.95 1249.49 1705.93 1248.45 1710.8 1247.21 z"/>
<path transform="translate(0,0)" fill="rgb(249,209,184)" d="M 1851.91 1113.12 C 1867.41 1112.83 1877.02 1124.33 1865.71 1137.35 C 1868.09 1142.61 1869.18 1147.73 1875.03 1149.29 C 1880.76 1146.88 1886.81 1146.56 1891.71 1150.95 C 1902.71 1160.84 1880.36 1184.4 1874.25 1193.94 C 1838.31 1212.45 1831.79 1175.9 1811.11 1176.61 C 1806.49 1179.78 1805.33 1180.49 1799.75 1181.34 C 1765.38 1185.58 1742.4 1199.91 1759.88 1154.48 C 1770.81 1156.88 1785.71 1158.8 1797.13 1160.74 C 1819.12 1152.76 1798.28 1148.07 1806.34 1135.63 C 1815.46 1121.54 1832.33 1143.2 1839.2 1135.28 C 1840.16 1130.62 1838.69 1127.49 1837.29 1122.86 C 1842.48 1117.93 1845.56 1116.05 1851.91 1113.12 z"/>
<path transform="translate(0,0)" fill="rgb(206,12,37)" d="M 1488.19 1200.86 C 1516.54 1219.87 1566.12 1238.21 1599.59 1245.01 C 1598.66 1250.13 1597.49 1255.19 1596.36 1260.27 L 1585.67 1269.46 C 1553.33 1269.82 1519.36 1264.55 1486.63 1266.62 C 1473.3 1267.47 1470.95 1251.93 1459.5 1245.9 L 1453.93 1242.98 L 1453.66 1241.32 L 1456.82 1237.68 C 1459.48 1234.78 1462.36 1231.9 1465.1 1229.06 C 1494.81 1244.78 1533.49 1259.11 1567.45 1260.25 C 1572.29 1260.41 1587 1261.83 1589.36 1257.39 C 1587.58 1255.51 1586.98 1254.76 1584.19 1254.58 C 1540.7 1251.76 1508.89 1244.19 1470.51 1222.43 C 1474.95 1214.96 1482.24 1207.3 1488.19 1200.86 z"/>
<path transform="translate(0,0)" fill="rgb(206,12,37)" d="M 1514.44 1176.79 C 1517.51 1177.56 1528.88 1185.11 1532.61 1186.85 C 1558.47 1198.9 1588.04 1208.98 1615.12 1217.12 C 1611.88 1222.46 1607.96 1231.49 1603.75 1235.56 C 1601.9 1237.34 1598.4 1236.25 1595.87 1235.88 C 1568.99 1230.04 1515.18 1211.03 1492.54 1195.86 C 1499.84 1187.54 1505.68 1183.14 1514.44 1176.79 z"/>
<path transform="translate(0,0)" fill="rgb(206,12,37)" d="M 1716.29 1143.88 C 1717.75 1144.3 1719.42 1144.75 1720.56 1145.79 C 1726.31 1151.08 1728.62 1148.63 1736.69 1148.18 C 1740.02 1149.81 1738.84 1148.62 1740.54 1151.69 C 1738.91 1169.88 1715.84 1200.78 1709.06 1215.15 L 1708.55 1216.24 L 1682.68 1205.87 C 1692.87 1185.09 1704.95 1164.18 1716.29 1143.88 z"/>
<path transform="translate(0,0)" fill="rgb(206,12,37)" d="M 1538.25 1158.02 C 1551.86 1157.51 1558.62 1162.3 1571.51 1165.4 C 1574.39 1166.09 1582.37 1166.53 1585.55 1166.71 C 1585.83 1172.83 1585.81 1174.09 1583.83 1179.93 L 1583.37 1181.26 C 1585.12 1193.14 1608.63 1197.48 1618.38 1198.93 C 1622.06 1201.89 1623.04 1202.09 1624.39 1205.98 L 1623.44 1207.73 C 1620.16 1209.02 1619.43 1208.67 1615.77 1208.23 C 1591.58 1201.49 1540.21 1184.31 1519.96 1171.13 C 1525.87 1165.7 1531.32 1161.96 1538.25 1158.02 z"/>
<path transform="translate(0,0)" fill="rgb(206,12,37)" d="M 1681.61 1138.95 C 1686.1 1138.78 1700.03 1140.75 1703.16 1143.81 C 1703.91 1150.1 1698.08 1168.48 1693.02 1171.07 C 1690.86 1170.04 1690.45 1169.56 1688.08 1169.82 C 1683.69 1175.67 1678.79 1189.41 1672.08 1199.32 L 1669.59 1201.55 C 1665.48 1202.94 1657.56 1200.28 1653.79 1198.52 C 1646.39 1188.2 1672.99 1147.26 1681.61 1138.95 z"/>
<path transform="translate(0,0)" fill="rgb(206,12,37)" d="M 1645.76 1130.4 C 1650.39 1130.64 1666.46 1135.42 1672.26 1136.77 C 1661.12 1154.2 1652.47 1171.2 1645.84 1190.77 L 1644.57 1194.32 C 1641.61 1196.48 1634.53 1196.19 1631.71 1194.18 C 1613.16 1180.98 1637.44 1142.64 1645.76 1130.4 z"/>
<path transform="translate(0,0)" fill="rgb(254,254,254)" d="M 1339.23 1280.44 C 1343.18 1270.54 1346.79 1257.48 1360.57 1264.44 C 1375.77 1272.13 1389.26 1290.96 1389.44 1308.08 C 1379.1 1302.45 1367.3 1309.7 1358.86 1315.95 L 1350.67 1304.64 C 1349.47 1301.09 1349.62 1297.4 1348.51 1294.33 C 1346.67 1289.29 1342.62 1288.52 1341.78 1282.38 L 1339.23 1280.44 z"/>
<path transform="translate(0,0)" fill="rgb(206,12,37)" d="M 1623.15 1118.07 C 1628.25 1122.81 1631.19 1125.66 1636.93 1129.48 C 1625.37 1148.57 1620.45 1165.59 1614.26 1186.91 C 1610.94 1188.58 1610.17 1187.93 1606.14 1187.76 C 1604.78 1187.19 1599.36 1184.97 1598.74 1183.85 C 1595.19 1177.05 1590.42 1168.67 1591.08 1160.77 C 1591.46 1156.15 1597.11 1156.06 1598.3 1154.27 C 1605.83 1142.9 1614.52 1132.6 1622.47 1121.6 C 1623.02 1120.84 1623.1 1118.93 1623.15 1118.07 z"/>
<path transform="translate(0,0)" fill="rgb(206,12,37)" d="M 1591.15 1120.77 C 1598.85 1121.97 1600.53 1122.3 1608.09 1121.09 L 1608.79 1124.71 C 1602.3 1130.75 1592.6 1149.48 1587.63 1158.14 C 1571.12 1157.49 1565.57 1157.45 1550.47 1149.61 L 1551.3 1148.67 C 1559.09 1139.74 1580.32 1125.77 1591.15 1120.77 z"/>
<path transform="translate(0,0)" fill="rgb(166,20,115)" d="M 1391.11 1246.85 C 1394.58 1246.91 1398.27 1250.73 1400.06 1253.4 C 1408.01 1265.27 1408.62 1277.88 1406.42 1291.29 C 1403.8 1286.54 1401.29 1282.94 1398.22 1278.48 C 1389.7 1269.07 1378.26 1264.94 1366.81 1259.92 C 1375.46 1253.53 1381.03 1250.64 1391.11 1246.85 z"/>
<path transform="translate(0,0)" fill="rgb(166,20,115)" d="M 1616.86 1344.42 C 1624.28 1351.18 1627.77 1353.56 1638.36 1353.68 C 1640.43 1354.33 1642.16 1354.76 1644.1 1355.72 C 1632.93 1364.73 1621.96 1370.52 1608.93 1376.2 C 1609.05 1361.5 1608.99 1356.81 1616.86 1344.42 z"/>
<path transform="translate(0,0)" fill="rgb(166,20,115)" d="M 1425.69 1238.33 C 1428.57 1237.82 1438.88 1237.81 1442.36 1237.73 C 1435.18 1243.76 1430.36 1254.5 1420 1264.29 C 1419.06 1263.73 1404.64 1246.18 1401.97 1243.2 C 1410.74 1241.03 1416.7 1239.67 1425.69 1238.33 z"/>
<path transform="translate(0,0)" fill="rgb(254,254,254)" d="M 1398.11 1234.33 C 1401.55 1232.02 1407.52 1223.77 1407.51 1223.77 C 1417.34 1220.22 1436.47 1221.84 1446.81 1223.14 C 1445.42 1226.25 1443.69 1230.47 1442.03 1233.33 C 1431.86 1232.99 1422.99 1232.84 1412.81 1233.48 C 1409.18 1233.72 1400.69 1234.99 1398.17 1234.84 L 1398.11 1234.33 z"/>
<path transform="translate(0,0)" fill="rgb(166,20,115)" d="M 1670.29 1282.63 C 1671.17 1284.14 1673.58 1291.85 1674.45 1294.14 C 1677.06 1301.06 1679.31 1304.97 1683.01 1311.27 C 1679.57 1316.72 1677.98 1318.54 1673.58 1323.33 L 1671.55 1324.54 C 1669.1 1322.49 1665.78 1314.63 1665.04 1311.4 C 1662.25 1299.37 1664.49 1292.78 1670.29 1282.63 z"/>
<path transform="translate(0,0)" fill="rgb(166,20,115)" d="M 1650.16 1309.71 C 1652.36 1311.44 1656.49 1318.55 1658.25 1321.35 C 1650.58 1333.64 1648.09 1335.97 1635.5 1343.36 C 1633.81 1343.66 1633.52 1343.48 1631.77 1343.34 C 1627.45 1337.83 1631.34 1329.82 1636.3 1326.11 C 1639.79 1323.51 1643.46 1324.88 1647.41 1325.59 C 1648.14 1319.43 1648.78 1315.75 1650.16 1309.71 z"/>
<path transform="translate(0,0)" fill="rgb(254,254,254)" fill-opacity="0.92549" d="M 1339.23 1280.44 L 1341.78 1282.38 C 1342.62 1288.52 1346.67 1289.29 1348.51 1294.33 C 1349.62 1297.4 1349.47 1301.09 1350.67 1304.64 C 1345.36 1308.26 1342.27 1308.87 1341.39 1315.5 C 1332.65 1304.44 1334.05 1292.64 1339.23 1280.44 z"/>
<path transform="translate(0,0)" fill="rgb(238,238,241)" d="M 1363.14 1247.02 C 1377.36 1229.38 1375.55 1225.65 1398.11 1234.33 L 1398.17 1234.84 C 1382.39 1237.51 1377.71 1240.47 1363.14 1247.02 z"/>
<path transform="translate(0,0)" fill="rgb(249,209,184)" d="M 1542.48 1119.3 C 1537.17 1117.23 1525.58 1113.6 1523.06 1108.91 L 1524.41 1107.66 C 1531.89 1106.23 1540.15 1106.91 1547.68 1107.83 C 1545.73 1111.83 1544.12 1115.15 1542.48 1119.3 z"/>
<path transform="translate(0,0)" fill="rgb(206,12,37)" d="M 1608.09 1121.09 C 1608.32 1117 1607.66 1116.3 1609.88 1113.52 C 1613.28 1112.72 1618.08 1114.83 1621.7 1115.99 C 1616.51 1118.92 1613.58 1121.11 1608.79 1124.71 L 1608.09 1121.09 z"/>
<path transform="translate(0,0)" fill="rgb(134,48,97)" d="M 1638.36 1353.68 C 1645.3 1351.59 1653.96 1344.19 1658.98 1338.98 L 1659.38 1341.33 C 1654.88 1346.8 1650.31 1352.1 1644.1 1355.72 C 1642.16 1354.76 1640.43 1354.33 1638.36 1353.68 z"/>
<path transform="translate(0,0)" fill="rgb(134,48,97)" d="M 1660.51 1326.16 L 1668.01 1333.64 C 1665.48 1335.88 1661.71 1339.05 1659.38 1341.33 L 1658.98 1338.98 C 1659.2 1333.58 1659.46 1331.46 1660.51 1326.16 z"/>
<path transform="translate(0,0)" fill="rgb(238,238,241)" d="M 1581.18 1091.3 C 1590.08 1090.28 1593.1 1088.43 1597.55 1096.9 C 1590.19 1097.1 1587.42 1094.94 1581.18 1091.3 z"/>
<path transform="translate(0,0)" fill="rgb(134,48,97)" d="M 1426.34 1263.57 L 1427.45 1264.61 C 1428.24 1269.1 1427.37 1276.64 1425.84 1280.93 C 1421.83 1273.16 1423.47 1271.53 1426.34 1263.57 z"/>
<path transform="translate(0,0)" fill="rgb(245,206,11)" d="M 1529.39 760.645 C 1544.2 738.474 1545.93 752.856 1562.01 746.456 C 1569.4 747.962 1586.08 759.237 1593.52 763.781 C 1607.05 771.923 1620.67 779.935 1634.36 787.815 C 1640.67 791.482 1660.5 804.771 1667.05 802.092 C 1669.81 794.689 1660.21 761.348 1659.37 752.105 C 1659.22 750.424 1653.83 742.769 1653 740.164 C 1647.01 721.573 1664.34 724.034 1676.56 721.212 C 1709.07 750.662 1737.36 790.827 1771.85 814.687 C 1775.49 805.182 1765.21 774.662 1761.55 764.487 C 1765.9 765.013 1770.73 766.07 1775.07 766.904 C 1780.42 772.329 1782.5 775.092 1789.51 777.888 C 1787.42 779.705 1785.24 780.832 1785.02 783.011 C 1805.69 810.071 1836.57 837.186 1851.56 867.974 C 1852.84 870.6 1853.16 877.558 1853.34 880.784 C 1839.72 882.004 1765.73 872.551 1756.47 878.073 C 1753.7 878.869 1712.95 881.882 1709.43 881.518 C 1706.26 879.809 1701.1 880.957 1697.69 882.117 C 1679.23 888.394 1663.81 898.46 1654.66 915.927 C 1654.38 916.451 1654.11 916.978 1653.84 917.509 C 1654.36 927.584 1655.1 936.103 1657.86 945.961 L 1653.98 955.321 C 1655.01 961.51 1656.31 968.356 1656.86 974.549 C 1647.5 984.045 1643.46 987.505 1629.31 988.02 C 1623.83 988.219 1609.19 986.903 1604.93 987.556 C 1589.28 974.827 1578.61 975.56 1560.09 969.062 L 1548.18 972.891 C 1544.85 969.734 1534.67 953.827 1531.45 953.565 C 1521.5 952.756 1510.44 950.957 1500.47 951.115 C 1493.8 951.221 1488.9 952.701 1481.75 951.554 L 1487.54 946.515 L 1485.41 943.423 C 1490.8 945.062 1497 947.415 1502.37 945.649 C 1501.49 944.944 1500.62 944.484 1499.6 943.988 C 1500.27 941.253 1502.6 940.142 1505.19 937.987 C 1495.26 935.824 1471.83 933.026 1467.12 924.045 C 1467.23 917.279 1469.64 923.424 1471.89 916.382 C 1470.78 910.325 1465.44 904.011 1461.6 899.273 C 1468.65 900.438 1473.81 901.026 1480.13 904.461 C 1480.51 891.26 1484.02 889.523 1484.35 879.722 C 1488.66 876.189 1495.74 876.084 1501.18 875.667 C 1509.47 879.227 1513.66 887.172 1522.2 881.475 C 1523.93 874.849 1524.09 873.391 1528.17 868.076 C 1524.89 864.697 1521.91 860.127 1517.85 859.031 C 1515.07 855.785 1506.12 843.048 1503.37 839.239 C 1502.72 838.346 1503.16 832.648 1503.28 831.096 C 1497.93 828.775 1474.4 821.263 1473.17 818 C 1477 814.303 1486.64 812.616 1492.1 811.241 C 1504.61 815.533 1566.46 844.706 1573.57 842.711 C 1575.8 839.964 1576.91 834.46 1575.77 831.183 C 1570.33 815.521 1565.15 799.527 1558.71 784.241 C 1552.55 769.619 1543.26 765.705 1529.39 760.645 z M 1700.95 771.602 C 1694.55 764.679 1687.65 756.627 1679.72 751.617 C 1679.8 762.668 1680.85 765.646 1684.57 776.048 C 1691.63 772.773 1693.41 772.607 1700.95 771.602 z"/>
<path transform="translate(0,0)" fill="rgb(0,0,0)" d="M 1529.39 760.645 C 1544.2 738.474 1545.93 752.856 1562.01 746.456 C 1569.4 747.962 1586.08 759.237 1593.52 763.781 C 1607.05 771.923 1620.67 779.935 1634.36 787.815 C 1640.67 791.482 1660.5 804.771 1667.05 802.092 C 1669.81 794.689 1660.21 761.348 1659.37 752.105 C 1659.22 750.424 1653.83 742.769 1653 740.164 C 1647.01 721.573 1664.34 724.034 1676.56 721.212 C 1709.07 750.662 1737.36 790.827 1771.85 814.687 C 1779.65 824.67 1812.04 844.531 1813.4 854.037 C 1811.9 857.481 1812.85 856.554 1809.98 858.442 C 1799.47 857.401 1791.43 850.094 1783.58 843.655 C 1765.26 828.629 1746.33 814.19 1728.75 798.296 C 1719.58 790.006 1711.37 780.463 1701.95 772.444 L 1700.95 771.602 C 1694.55 764.679 1687.65 756.627 1679.72 751.617 C 1679.8 762.668 1680.85 765.646 1684.57 776.048 L 1684.77 777.012 C 1690.69 804.161 1696.79 812.117 1716.83 828.973 C 1718.86 830.676 1717.32 833.861 1716.16 835.945 C 1711.32 839.314 1691.25 835.097 1681.71 834.795 C 1678.06 830.063 1674.19 824.502 1669.15 821.432 C 1652.74 811.425 1634.14 803.907 1616.95 794.809 C 1611.22 791.777 1592.61 780.873 1588.4 779.527 C 1585.3 781.864 1586.61 781.563 1583.18 781.583 C 1579.9 779.689 1580.21 780.537 1578.87 777.698 L 1579.95 775.426 C 1577.18 773.496 1578.58 773.827 1575.75 773.58 C 1573.69 780.303 1584.08 798.763 1587.99 804.22 C 1591.87 809.627 1591.77 810.967 1593.36 817.483 C 1606.68 823.507 1618.43 839.247 1631.39 849.527 C 1630.05 853.124 1628.56 856.819 1627.57 860.512 C 1623.76 859.484 1616.68 857.399 1612.96 857.697 C 1592.7 859.318 1577.33 852.054 1558.19 847.154 C 1539.4 842.341 1521.73 838.008 1503.28 831.096 C 1497.93 828.775 1474.4 821.263 1473.17 818 C 1477 814.303 1486.64 812.616 1492.1 811.241 C 1504.61 815.533 1566.46 844.706 1573.57 842.711 C 1575.8 839.964 1576.91 834.46 1575.77 831.183 C 1570.33 815.521 1565.15 799.527 1558.71 784.241 C 1552.55 769.619 1543.26 765.705 1529.39 760.645 z"/>
<path transform="translate(0,0)" fill="rgb(0,0,0)" d="M 1461.6 899.273 C 1468.65 900.438 1473.81 901.026 1480.13 904.461 C 1486.79 912.279 1521.5 920.323 1527.64 931.867 C 1527.19 938.893 1510.61 938.284 1505.19 937.987 C 1495.26 935.824 1471.83 933.026 1467.12 924.045 C 1467.23 917.279 1469.64 923.424 1471.89 916.382 C 1470.78 910.325 1465.44 904.011 1461.6 899.273 z"/>
<path transform="translate(0,0)" fill="rgb(0,0,0)" d="M 1528.17 868.076 C 1534 872.28 1536.88 877.549 1541.54 883.205 C 1548.2 885.369 1560.01 888.603 1562.33 896.088 C 1554.85 910.74 1505 892.598 1493.85 886.542 C 1491.23 885.12 1486.84 881.688 1484.35 879.722 C 1488.66 876.189 1495.74 876.084 1501.18 875.667 C 1509.47 879.227 1513.66 887.172 1522.2 881.475 C 1523.93 874.849 1524.09 873.391 1528.17 868.076 z"/>
<path transform="translate(0,0)" fill="rgb(0,0,0)" d="M 1709.43 881.518 C 1717.28 876.49 1749.64 872.982 1756.47 878.073 C 1753.7 878.869 1712.95 881.882 1709.43 881.518 z"/>
<path transform="translate(0,0)" fill="rgb(0,0,0)" d="M 1623.46 936.106 C 1625.37 935.854 1626.55 936.127 1628.46 936.364 L 1629.21 937.577 C 1626.22 941.815 1611.74 946.43 1606.28 948.467 C 1603.89 948.967 1603.96 949.056 1601.57 948.735 C 1600.46 947.227 1600.52 947.935 1600.58 946.536 C 1605.16 940.625 1616.54 937.716 1623.46 936.106 z"/>
<path transform="translate(0,0)" fill="rgb(0,0,0)" d="M 1629.82 958.172 C 1632.4 957.899 1632.35 958.051 1634.88 958.81 L 1634.51 960.188 C 1629.54 963.172 1623.65 964.767 1618.1 966.537 C 1615.37 967.025 1615.42 966.994 1612.65 966.705 L 1612.13 965.616 C 1616.26 961.276 1624.14 959.535 1629.82 958.172 z"/>
<path transform="translate(0,0)" fill="rgb(0,0,0)" d="M 1846.4 957.124 C 1853.29 956.304 1864.57 958.888 1864.52 966.868 C 1864.48 974.067 1865.77 1013.2 1862.74 1016.56 L 1862.06 1015.02 C 1859.97 1012.26 1860.79 1012.41 1858.26 1012.01 L 1855 1014.86 C 1847.18 1015.04 1843.84 995.727 1843.92 989.84 C 1844.05 980.285 1840.2 964.399 1846.4 957.124 z"/>
<path transform="translate(0,0)" fill="rgb(254,254,254)" d="M 1517.85 859.031 C 1521.91 860.127 1524.89 864.697 1528.17 868.076 C 1524.09 873.391 1523.93 874.849 1522.2 881.475 C 1518.87 876.606 1513.98 867.179 1516.48 861.503 C 1517.03 862.409 1517.7 866.418 1517.96 867.725 L 1518.72 868.023 C 1519.57 863.67 1519.5 863.159 1517.85 859.031 z"/>
<path transform="translate(0,0)" fill="rgb(0,0,0)" fill-opacity="0.94902" d="M 1347.94 260.87 C 1353.68 261.182 1356.93 261.712 1362.62 262.739 C 1367.23 262.739 1370.32 262.226 1373.96 265.113 L 1374 266.185 C 1371.09 268.03 1372.45 267.652 1368.54 267.071 C 1362.77 264.604 1355.05 264.28 1348.89 265.347 C 1349.53 262.997 1349.32 263.73 1347.94 260.87 z"/>
<path transform="translate(0,0)" fill="rgb(0,0,0)" fill-opacity="0.164706" d="M 1341.72 656.619 C 1339.91 654.212 1338.36 653.648 1335.52 653.832 L 1332.26 657.729 C 1330.86 654.835 1331.11 654.285 1331.28 650.935 C 1333.27 649.401 1336.73 649.905 1339.78 649.817 L 1340.66 650.353 C 1340.95 652.624 1341.28 654.4 1341.72 656.619 z"/>
<path transform="translate(0,0)" fill="rgb(0,0,0)" fill-opacity="0.160784" d="M 1479.75 955.963 C 1484.86 952.954 1490.31 953.593 1495.88 954.682 L 1496.92 955.839 C 1493.76 957.808 1490.63 957.499 1486.79 957.686 C 1484.51 957.483 1481.98 956.612 1479.75 955.963 z"/>
<path transform="translate(0,0)" fill="rgb(0,0,0)" fill-opacity="0.333333" d="M 1339.78 649.817 L 1339 648.159 C 1336.6 648.143 1335.13 648.454 1333.32 646.961 C 1334.71 642.946 1335.38 641.967 1337.69 638.362 L 1338.99 638.265 C 1338.68 641.396 1338.59 641.98 1338.99 645.063 L 1341.61 646.175 L 1340.66 650.353 L 1339.78 649.817 z"/>
<path transform="translate(0,0)" fill="rgb(0,0,0)" fill-opacity="0.239216" d="M 1348.89 265.347 C 1355.05 264.28 1362.77 264.604 1368.54 267.071 C 1361.41 268.535 1355.59 267.697 1348.89 265.347 z"/>
</svg>