<svg xmlns="http://www.w3.org/2000/svg" viewBox="0 0 200 120">
  <!-- Balloon body -->
  <path d="M100 15 C45 15 10 45 10 70 C10 95 35 110 70 112 L70 118 L82 110 C88 111 94 112 100 112 C155 112 190 95 190 70 C190 45 155 15 100 15 Z" fill="white" stroke="#2B2B2B" stroke-width="3"/>

  <!-- Inner highlight -->
  <path d="M100 20 C50 20 18 48 18 70 C18 92 40 106 70 108 L70 114 L80 107 C86 108 93 108 100 108 C150 108 182 92 182 70 C182 48 150 20 100 20 Z" fill="none" stroke="#2B2B2B" stroke-width="1" opacity="0.2"/>

  <!-- Tail -->
  <path d="M70 110 L55 118 L62 108" fill="none" stroke="#2B2B2B" stroke-width="2.5" stroke-linecap="round" stroke-linejoin="round"/>
</svg>
