<svg xmlns="http://www.w3.org/2000/svg" viewBox="0 0 100 100">
  <!-- Container bottom -->
  <rect x="16" y="48" width="68" height="32" rx="5" fill="#FFF8E7" stroke="#2B2B2B" stroke-width="3.5" stroke-linejoin="round"/>
  <!-- Container middle -->
  <rect x="20" y="30" width="60" height="28" rx="4" fill="white" stroke="#2B2B2B" stroke-width="3.5" stroke-linejoin="round"/>
  <!-- Container top -->
  <rect x="24" y="14" width="52" height="24" rx="4" fill="#FFF8E7" stroke="#2B2B2B" stroke-width="3.5" stroke-linejoin="round"/>

  <!-- Docker whale silhouette on top container -->
  <path d="M36 28 C36 28 32 22 38 22 L62 22 C68 22 64 28 64 28"
        fill="#457B9D" stroke="#2B2B2B" stroke-width="2"/>
  <circle cx="52" cy="28" r="1.5" fill="white"/>

  <!-- Gear icon on middle -->
  <circle cx="50" cy="44" r="7" fill="none" stroke="#E63946" stroke-width="3"/>
  <path d="M43 44 L40 44 M50 37 L50 34 M57 44 L60 44 M50 51 L50 54"
        fill="none" stroke="#E63946" stroke-width="3" stroke-linecap="round"/>

  <!-- Stacking bumps on top of bottom container -->
  <circle cx="40" cy="48" r="2" fill="#2B2B2B"/>
  <circle cx="50" cy="48" r="2" fill="#2B2B2B"/>
  <circle cx="60" cy="48" r="2" fill="#2B2B2B"/>
</svg>
